<svg xmlns="http://www.w3.org/2000/svg" xmlns:xlink="http://www.w3.org/1999/xlink" width="500" zoomAndPan="magnify" viewBox="0 0 375 374.999991" height="500" preserveAspectRatio="xMidYMid meet" version="1.0"><defs><g/><clipPath id="e1bffc5198"><path d="M 121 122 L 260.980469 122 L 260.980469 262.5 L 121 262.5 Z M 121 122 " clip-rule="nonzero"/></clipPath><clipPath id="7d31a0e2be"><path d="M 145 112.5 L 173 112.5 L 173 142 L 145 142 Z M 145 112.5 " clip-rule="nonzero"/></clipPath></defs><g clip-path="url(#e1bffc5198)"><path fill="#f5f3f6" d="M 191.253906 262.433594 C 181.839844 262.433594 172.707031 260.589844 164.109375 256.953125 C 155.808594 253.441406 148.351562 248.414062 141.949219 242.007812 C 135.546875 235.601562 130.515625 228.144531 127.003906 219.839844 C 123.367188 211.242188 121.527344 202.105469 121.527344 192.691406 C 121.527344 183.277344 123.367188 174.144531 127.003906 165.542969 C 130.515625 157.238281 135.542969 149.78125 141.949219 143.375 C 148.351562 136.972656 155.808594 131.941406 164.109375 128.429688 C 172.707031 124.792969 181.839844 122.949219 191.253906 122.949219 C 200.664062 122.949219 209.796875 124.792969 218.394531 128.429688 C 226.695312 131.941406 234.152344 136.96875 240.554688 143.375 C 246.957031 149.78125 251.988281 157.238281 255.5 165.542969 C 259.136719 174.144531 260.980469 183.277344 260.980469 192.691406 C 260.980469 204.566406 257.941406 216.292969 252.199219 226.601562 C 252.058594 226.851562 251.742188 226.941406 251.488281 226.800781 C 251.238281 226.660156 251.144531 226.34375 251.285156 226.09375 C 256.945312 215.9375 259.9375 204.386719 259.9375 192.691406 C 259.9375 154.8125 229.125 123.992188 191.253906 123.992188 C 153.378906 123.992188 122.570312 154.8125 122.570312 192.691406 C 122.570312 230.570312 153.378906 261.390625 191.253906 261.390625 C 199.71875 261.390625 207.988281 259.871094 215.820312 256.867188 C 216.089844 256.761719 216.390625 256.898438 216.496094 257.167969 C 216.597656 257.4375 216.464844 257.738281 216.195312 257.839844 C 208.238281 260.890625 199.847656 262.433594 191.253906 262.433594 Z M 191.253906 262.433594 " fill-opacity="1" fill-rule="nonzero"/></g><g clip-path="url(#7d31a0e2be)"><path fill="#f5f3f6" d="M 145.800781 141.015625 C 145.742188 141.015625 145.6875 141.007812 145.628906 140.988281 C 145.382812 140.902344 145.234375 140.648438 145.289062 140.394531 C 146.085938 136.472656 146.824219 134.179688 148.863281 131.753906 C 150.085938 130.304688 151.613281 129.101562 152.945312 128.09375 C 156.320312 125.53125 159.886719 123.144531 163.542969 120.992188 L 164.066406 120.683594 C 165.671875 119.746094 167.332031 118.773438 168.660156 117.488281 C 169.957031 116.234375 170.945312 114.671875 171.527344 112.972656 C 171.613281 112.714844 171.882812 112.570312 172.144531 112.632812 C 172.40625 112.695312 172.578125 112.953125 172.535156 113.21875 C 172.050781 116.304688 170.824219 119.273438 168.980469 121.800781 C 166.21875 125.59375 162.179688 128.285156 158.226562 130.625 C 157.898438 130.820312 157.566406 131.015625 157.238281 131.207031 C 153.785156 133.234375 150.214844 135.332031 147.859375 138.507812 C 147.710938 138.707031 147.550781 138.910156 147.386719 139.121094 C 146.960938 139.65625 146.523438 140.210938 146.265625 140.726562 C 146.175781 140.910156 145.992188 141.015625 145.800781 141.015625 Z M 149.664062 132.425781 C 148.226562 134.136719 147.492188 135.742188 146.882812 138.066406 C 146.929688 138.007812 146.976562 137.949219 147.019531 137.886719 C 149.503906 134.539062 153.167969 132.390625 156.710938 130.308594 C 157.039062 130.117188 157.367188 129.921875 157.695312 129.730469 C 161.554688 127.441406 165.488281 124.828125 168.140625 121.1875 C 169.042969 119.949219 169.789062 118.597656 170.363281 117.175781 C 170.058594 117.550781 169.734375 117.90625 169.386719 118.238281 C 167.96875 119.613281 166.253906 120.613281 164.59375 121.585938 L 164.074219 121.890625 C 160.449219 124.019531 156.917969 126.386719 153.574219 128.925781 C 152.230469 129.945312 150.816406 131.054688 149.664062 132.425781 Z M 149.664062 132.425781 " fill-opacity="1" fill-rule="nonzero"/></g><path fill="#f5f3f6" d="M 141.589844 145.082031 C 141.4375 145.082031 141.289062 145.015625 141.1875 144.886719 C 141.019531 144.683594 141.03125 144.390625 141.210938 144.203125 C 143.960938 141.292969 145.796875 139.738281 148.808594 138.757812 C 150.613281 138.171875 152.542969 137.957031 154.207031 137.804688 C 158.425781 137.410156 162.714844 137.265625 166.957031 137.371094 L 167.5625 137.386719 C 169.421875 137.4375 171.347656 137.488281 173.15625 137.101562 C 174.917969 136.71875 176.582031 135.914062 177.972656 134.777344 C 178.179688 134.605469 178.484375 134.625 178.675781 134.820312 C 178.863281 135.011719 178.875 135.320312 178.695312 135.523438 C 176.65625 137.886719 174.046875 139.757812 171.148438 140.933594 C 166.800781 142.695312 161.949219 142.84375 157.355469 142.746094 C 156.972656 142.738281 156.589844 142.730469 156.207031 142.71875 C 152.207031 142.617188 148.066406 142.507812 144.386719 143.964844 C 144.160156 144.050781 143.914062 144.140625 143.664062 144.234375 C 143.019531 144.464844 142.355469 144.703125 141.863281 145.007812 C 141.78125 145.058594 141.683594 145.082031 141.589844 145.082031 Z M 149.132812 139.75 C 147.007812 140.441406 145.539062 141.417969 143.792969 143.074219 C 143.867188 143.046875 143.9375 143.019531 144.003906 142.992188 C 147.882812 141.460938 152.128906 141.570312 156.234375 141.675781 C 156.617188 141.683594 156.996094 141.695312 157.378906 141.703125 C 161.863281 141.800781 166.585938 141.65625 170.757812 139.964844 C 172.179688 139.390625 173.527344 138.636719 174.765625 137.734375 C 174.3125 137.890625 173.847656 138.019531 173.378906 138.121094 C 171.445312 138.535156 169.460938 138.484375 167.539062 138.429688 L 166.933594 138.414062 C 162.734375 138.3125 158.484375 138.457031 154.308594 138.84375 C 152.621094 138.996094 150.835938 139.195312 149.132812 139.75 Z M 149.132812 139.75 " fill-opacity="1" fill-rule="nonzero"/><path fill="#f5f3f6" d="M 122.207031 189.351562 C 122.046875 189.351562 121.894531 189.277344 121.792969 189.148438 C 120.453125 187.402344 119.484375 185.914062 118.746094 184.472656 C 116.59375 180.265625 115.929688 175.453125 115.5625 171.300781 C 115.46875 170.265625 115.390625 169.207031 115.316406 168.1875 C 115.066406 164.828125 114.808594 161.347656 114.03125 158.039062 C 113.976562 157.804688 114.089844 157.5625 114.300781 157.453125 C 114.515625 157.34375 114.777344 157.394531 114.933594 157.578125 C 118.429688 161.609375 120.707031 165.527344 121.90625 169.554688 C 123.269531 174.15625 123.175781 178.992188 122.9375 182.695312 C 122.816406 184.597656 122.761719 186.378906 122.761719 188.140625 C 122.761719 188.390625 122.75 188.632812 122.730469 188.878906 C 122.710938 189.089844 122.558594 189.269531 122.355469 189.332031 C 122.304688 189.34375 122.257812 189.351562 122.207031 189.351562 Z M 119.671875 183.996094 C 120.207031 185.039062 120.871094 186.109375 121.71875 187.296875 C 121.734375 185.785156 121.792969 184.25 121.894531 182.628906 C 122.128906 179.015625 122.222656 174.296875 120.902344 169.851562 C 119.90625 166.496094 118.121094 163.210938 115.464844 159.851562 C 115.945312 162.597656 116.152344 165.390625 116.355469 168.113281 C 116.429688 169.128906 116.507812 170.179688 116.601562 171.207031 C 116.957031 175.261719 117.601562 179.949219 119.671875 183.996094 Z M 119.671875 183.996094 " fill-opacity="1" fill-rule="nonzero"/><path fill="#f5f3f6" d="M 122.910156 185.589844 C 122.863281 185.589844 122.8125 185.582031 122.765625 185.570312 C 122.527344 185.5 122.371094 185.273438 122.390625 185.027344 C 122.449219 184.277344 122.570312 183.46875 122.757812 182.5625 C 123.171875 180.570312 123.667969 178.976562 124.316406 177.546875 C 126.011719 173.828125 128.960938 170.875 131.8125 168.023438 C 134.769531 165.066406 137.828125 162.003906 139.347656 158.152344 C 139.433594 157.9375 139.644531 157.804688 139.875 157.824219 C 140.105469 157.84375 140.292969 158.007812 140.34375 158.234375 C 141.253906 162.441406 139.773438 167.378906 136.28125 171.777344 C 134.328125 174.234375 131.96875 176.359375 129.691406 178.417969 C 128.507812 179.488281 127.285156 180.589844 126.140625 181.722656 C 124.914062 182.933594 123.976562 184.003906 123.394531 185.269531 C 123.386719 185.285156 123.378906 185.304688 123.371094 185.316406 C 123.277344 185.488281 123.097656 185.589844 122.910156 185.589844 Z M 139.550781 160.203125 C 137.832031 163.476562 135.152344 166.15625 132.546875 168.761719 C 129.761719 171.550781 126.882812 174.429688 125.265625 177.980469 C 124.65625 179.324219 124.183594 180.835938 123.789062 182.730469 C 124.292969 182.109375 124.851562 181.527344 125.410156 180.980469 C 126.570312 179.832031 127.800781 178.71875 128.992188 177.644531 C 131.238281 175.613281 133.5625 173.515625 135.460938 171.125 C 138.277344 167.582031 139.71875 163.691406 139.550781 160.203125 Z M 139.550781 160.203125 " fill-opacity="1" fill-rule="nonzero"/><path fill="#f5f3f6" d="M 124.066406 174.535156 C 124.042969 174.535156 124.019531 174.53125 123.996094 174.527344 C 123.757812 174.496094 123.570312 174.300781 123.546875 174.0625 C 122.457031 162.730469 124.195312 151.199219 128.582031 140.710938 C 128.679688 140.472656 128.9375 140.347656 129.183594 140.40625 C 129.433594 140.464844 129.601562 140.695312 129.582031 140.953125 C 129.394531 143.410156 129.445312 145.929688 129.496094 148.367188 C 129.546875 150.890625 129.597656 153.496094 129.386719 156.066406 C 128.902344 161.992188 127.105469 167.601562 124.554688 174.203125 C 124.476562 174.402344 124.28125 174.535156 124.066406 174.535156 Z M 128.410156 144.011719 C 125.195312 152.820312 123.824219 162.277344 124.40625 171.652344 C 126.484375 166.058594 127.929688 161.128906 128.347656 155.980469 C 128.554688 153.464844 128.5 150.882812 128.453125 148.386719 C 128.421875 146.949219 128.390625 145.480469 128.410156 144.011719 Z M 128.410156 144.011719 " fill-opacity="1" fill-rule="nonzero"/><path fill="#f5f3f6" d="M 128.964844 161.8125 C 128.847656 161.8125 128.730469 161.773438 128.636719 161.695312 C 128.441406 161.539062 128.386719 161.265625 128.503906 161.046875 C 129.175781 159.785156 130.191406 158.519531 131.699219 157.074219 C 138.117188 150.914062 146.078125 146.550781 154.726562 144.460938 C 154.953125 144.410156 155.1875 144.507812 155.300781 144.710938 C 155.417969 144.914062 155.386719 145.167969 155.222656 145.332031 C 151.867188 148.796875 148.398438 152.378906 144.023438 154.734375 C 142.222656 155.703125 140.140625 156.492188 138.132812 157.25 C 134.964844 158.449219 131.6875 159.691406 129.300781 161.691406 C 129.203125 161.773438 129.085938 161.8125 128.964844 161.8125 Z M 132.421875 157.828125 C 131.925781 158.304688 131.488281 158.753906 131.097656 159.195312 C 133.160156 158.015625 135.488281 157.132812 137.761719 156.273438 C 139.832031 155.488281 141.785156 154.75 143.53125 153.8125 C 147.207031 151.832031 150.265625 148.914062 153.171875 145.949219 C 145.398438 148.140625 138.257812 152.222656 132.421875 157.828125 Z M 132.421875 157.828125 " fill-opacity="1" fill-rule="nonzero"/><path fill="#f5f3f6" d="M 132.011719 156.800781 C 131.976562 156.800781 131.9375 156.800781 131.902344 156.789062 C 131.71875 156.753906 131.574219 156.617188 131.515625 156.441406 C 131.195312 155.445312 131.0625 154.320312 131.132812 153.183594 C 131.261719 151.230469 131.921875 149.390625 132.621094 147.695312 C 133.414062 145.753906 134.324219 143.835938 135.203125 141.976562 C 136.179688 139.914062 137.191406 137.78125 138.039062 135.628906 C 139.609375 131.648438 140.195312 122.957031 140.203125 122.871094 C 140.21875 122.609375 140.429688 122.398438 140.691406 122.382812 C 140.953125 122.367188 141.1875 122.550781 141.234375 122.808594 C 141.328125 123.296875 143.460938 134.804688 142.027344 140.46875 C 140.28125 147.34375 134.710938 154.0625 132.398438 156.628906 C 132.300781 156.742188 132.160156 156.800781 132.011719 156.800781 Z M 132.175781 153.25 C 132.132812 153.914062 132.167969 154.570312 132.277344 155.191406 C 134.800781 152.285156 139.476562 146.285156 141.015625 140.210938 C 141.875 136.828125 141.363281 131.039062 140.84375 127.117188 C 140.503906 129.996094 139.921875 133.699219 139.007812 136.011719 C 138.148438 138.195312 137.132812 140.347656 136.148438 142.425781 C 135.273438 144.269531 134.371094 146.175781 133.585938 148.09375 C 132.921875 149.707031 132.292969 151.449219 132.175781 153.25 Z M 132.175781 153.25 " fill-opacity="1" fill-rule="nonzero"/><path fill="#f5f3f6" d="M 223.074219 254.78125 C 223.074219 254.988281 223.03125 255.191406 222.953125 255.382812 C 222.875 255.574219 222.761719 255.742188 222.613281 255.890625 C 222.46875 256.035156 222.296875 256.148438 222.105469 256.230469 C 221.914062 256.308594 221.714844 256.347656 221.507812 256.347656 C 221.300781 256.347656 221.101562 256.308594 220.910156 256.230469 C 220.71875 256.148438 220.546875 256.035156 220.402344 255.890625 C 220.253906 255.742188 220.140625 255.574219 220.0625 255.382812 C 219.984375 255.191406 219.941406 254.988281 219.941406 254.78125 C 219.941406 254.574219 219.984375 254.375 220.0625 254.183594 C 220.140625 253.992188 220.253906 253.824219 220.402344 253.675781 C 220.546875 253.527344 220.71875 253.414062 220.910156 253.335938 C 221.101562 253.257812 221.300781 253.21875 221.507812 253.21875 C 221.714844 253.21875 221.914062 253.257812 222.105469 253.335938 C 222.296875 253.414062 222.46875 253.527344 222.613281 253.675781 C 222.761719 253.824219 222.875 253.992188 222.953125 254.183594 C 223.03125 254.375 223.074219 254.574219 223.074219 254.78125 Z M 223.074219 254.78125 " fill-opacity="1" fill-rule="nonzero"/><path fill="#f5f3f6" d="M 233.394531 248.582031 C 233.394531 248.792969 233.351562 248.992188 233.273438 249.183594 C 233.195312 249.375 233.082031 249.542969 232.933594 249.691406 C 232.789062 249.835938 232.617188 249.949219 232.425781 250.03125 C 232.234375 250.109375 232.035156 250.148438 231.828125 250.148438 C 231.621094 250.148438 231.421875 250.109375 231.230469 250.03125 C 231.039062 249.949219 230.867188 249.835938 230.722656 249.691406 C 230.574219 249.542969 230.460938 249.375 230.382812 249.183594 C 230.300781 248.992188 230.261719 248.792969 230.261719 248.582031 C 230.261719 248.375 230.300781 248.175781 230.382812 247.984375 C 230.460938 247.792969 230.574219 247.625 230.722656 247.476562 C 230.867188 247.332031 231.039062 247.21875 231.230469 247.136719 C 231.421875 247.058594 231.621094 247.019531 231.828125 247.019531 C 232.035156 247.019531 232.234375 247.058594 232.425781 247.136719 C 232.617188 247.21875 232.789062 247.332031 232.933594 247.476562 C 233.082031 247.625 233.195312 247.792969 233.273438 247.984375 C 233.351562 248.175781 233.394531 248.375 233.394531 248.582031 Z M 233.394531 248.582031 " fill-opacity="1" fill-rule="nonzero"/><path fill="#f5f3f6" d="M 242.480469 240.6875 C 242.480469 240.894531 242.441406 241.09375 242.359375 241.285156 C 242.28125 241.476562 242.167969 241.648438 242.019531 241.792969 C 241.875 241.941406 241.707031 242.054688 241.515625 242.132812 C 241.320312 242.214844 241.121094 242.253906 240.914062 242.253906 C 240.707031 242.253906 240.507812 242.214844 240.316406 242.132812 C 240.125 242.054688 239.953125 241.941406 239.808594 241.792969 C 239.660156 241.648438 239.546875 241.476562 239.46875 241.285156 C 239.390625 241.09375 239.351562 240.894531 239.351562 240.6875 C 239.351562 240.480469 239.390625 240.28125 239.46875 240.089844 C 239.546875 239.898438 239.660156 239.726562 239.808594 239.582031 C 239.953125 239.433594 240.125 239.320312 240.316406 239.242188 C 240.507812 239.160156 240.707031 239.121094 240.914062 239.121094 C 241.121094 239.121094 241.320312 239.160156 241.515625 239.242188 C 241.707031 239.320312 241.875 239.433594 242.019531 239.582031 C 242.167969 239.726562 242.28125 239.898438 242.359375 240.089844 C 242.441406 240.28125 242.480469 240.480469 242.480469 240.6875 Z M 242.480469 240.6875 " fill-opacity="1" fill-rule="nonzero"/><path fill="#f5f3f6" d="M 250.058594 231.332031 C 250.058594 231.539062 250.019531 231.738281 249.9375 231.929688 C 249.859375 232.121094 249.746094 232.292969 249.597656 232.4375 C 249.453125 232.585938 249.28125 232.699219 249.089844 232.777344 C 248.898438 232.859375 248.699219 232.898438 248.492188 232.898438 C 248.285156 232.898438 248.085938 232.859375 247.894531 232.777344 C 247.703125 232.699219 247.53125 232.585938 247.386719 232.4375 C 247.238281 232.292969 247.125 232.121094 247.046875 231.929688 C 246.96875 231.738281 246.925781 231.539062 246.925781 231.332031 C 246.925781 231.125 246.96875 230.925781 247.046875 230.734375 C 247.125 230.542969 247.238281 230.371094 247.386719 230.226562 C 247.53125 230.078125 247.703125 229.964844 247.894531 229.886719 C 248.085938 229.808594 248.285156 229.765625 248.492188 229.765625 C 248.699219 229.765625 248.898438 229.808594 249.089844 229.886719 C 249.285156 229.964844 249.453125 230.078125 249.597656 230.226562 C 249.746094 230.371094 249.859375 230.542969 249.9375 230.734375 C 250.019531 230.925781 250.058594 231.125 250.058594 231.332031 Z M 250.058594 231.332031 " fill-opacity="1" fill-rule="nonzero"/><g fill="#f5f3f6" fill-opacity="1"><g transform="translate(151.348448, 225.464627)"><g><path d="M 3.320312 -1.445312 C 4.808594 -2.480469 5.507812 -4.398438 5.265625 -6.175781 C 5.238281 -6.589844 5.128906 -6.992188 4.945312 -7.382812 C 4.601562 -8.3125 4.074219 -8.941406 3.441406 -9.667969 C 2.722656 -10.507812 1.910156 -11.242188 1.058594 -11.90625 L 0.769531 -12.136719 L 3.40625 -15.183594 L 3.523438 -15.394531 C 3.53125 -15.441406 3.488281 -15.628906 3.378906 -15.597656 C 3.273438 -15.566406 3.195312 -15.554688 3.164062 -15.535156 C 3.085938 -15.523438 3 -15.460938 2.882812 -15.378906 C 2.679688 -15.238281 2.515625 -15.039062 2.332031 -14.867188 C 1.65625 -14.09375 0.902344 -13.3125 0.199219 -12.519531 C -0.410156 -12.957031 -1.019531 -13.398438 -1.660156 -13.820312 C -2.65625 -14.511719 -3.570312 -15.261719 -4.5 -16.039062 C -5.214844 -16.625 -5.777344 -17.3125 -6.238281 -18.160156 C -7.179688 -19.757812 -7.027344 -21.59375 -5.484375 -22.796875 C -4.902344 -23.203125 -4.046875 -22.71875 -3.671875 -22.242188 C -3.257812 -21.710938 -3.035156 -21.085938 -2.933594 -20.375 L -2.859375 -19.648438 C -2.828125 -19.542969 -2.738281 -19.472656 -2.609375 -19.476562 C -2.480469 -19.480469 -2.375 -19.511719 -2.289062 -19.570312 C -2.257812 -19.59375 -2.21875 -19.664062 -2.152344 -19.753906 C -1.929688 -20.425781 -2 -21.027344 -2.183594 -21.722656 C -2.519531 -22.828125 -3.203125 -23.4375 -4.300781 -23.582031 C -5.179688 -23.660156 -6.039062 -23.40625 -6.738281 -22.921875 C -8.253906 -21.867188 -8.746094 -20.269531 -8.148438 -18.476562 C -7.875 -17.585938 -7.355469 -16.78125 -6.660156 -16.09375 C -5.324219 -14.730469 -3.691406 -13.574219 -2.074219 -12.492188 C -1.625 -12.15625 -1.175781 -11.820312 -0.734375 -11.433594 C -2.535156 -9.359375 -3.890625 -7.203125 -3.515625 -4.738281 C -3.332031 -4.042969 -3.0625 -3.40625 -2.691406 -2.929688 C -2.152344 -2.222656 -1.492188 -1.644531 -0.78125 -1.1875 C 0.761719 -0.398438 1.835938 -0.410156 3.320312 -1.445312 Z M 2.703125 -1.710938 C 1.859375 -1.121094 0.6875 -1.5625 -0.121094 -2.039062 C -0.53125 -2.316406 -0.859375 -2.605469 -1.253906 -2.980469 C -1.863281 -3.550781 -2.203125 -4.222656 -2.398438 -4.996094 C -2.855469 -7.273438 -1.980469 -8.75 -0.171875 -11.003906 C 0.769531 -10.144531 1.546875 -9.34375 2.34375 -8.382812 C 2.695312 -7.9375 2.890625 -7.597656 3.105469 -7.226562 C 4.054688 -5.679688 4.078125 -3.402344 3.015625 -2.011719 C 2.886719 -1.882812 2.792969 -1.769531 2.703125 -1.710938 Z M 2.703125 -1.710938 "/></g></g></g><g fill="#f5f3f6" fill-opacity="1"><g transform="translate(159.510518, 219.781906)"><g><path d="M -0.871094 -3.550781 C -0.316406 -3.933594 -0.179688 -4.546875 -0.0742188 -5.140625 C 0.0859375 -5.902344 0.140625 -6.632812 0.195312 -7.492188 L 0.371094 -12.335938 C 0.367188 -12.460938 0.386719 -12.5625 0.382812 -12.6875 C 0.382812 -12.816406 0.378906 -12.945312 0.375 -13.074219 L 0.34375 -13.308594 C 0.308594 -13.417969 0.171875 -13.492188 0.0625 -13.460938 C 0.015625 -13.46875 -0.0742188 -13.410156 -0.160156 -13.347656 C -0.25 -13.289062 -0.316406 -13.199219 -0.332031 -13.097656 L -0.445312 -11.765625 C -0.464844 -10.238281 -0.523438 -8.769531 -0.640625 -7.257812 C -0.652344 -6.46875 -0.773438 -5.648438 -0.984375 -4.769531 C -1.039062 -4.601562 -1.113281 -4.460938 -1.199219 -4.273438 C -1.207031 -4.222656 -1.238281 -4.203125 -1.265625 -4.183594 C -1.324219 -4.140625 -1.402344 -4.128906 -1.492188 -4.195312 C -1.84375 -4.515625 -2.167969 -4.851562 -2.402344 -5.253906 C -4.066406 -8.203125 -4.953125 -10.660156 -4.777344 -14.074219 C -4.769531 -14.121094 -4.75 -14.222656 -4.710938 -14.289062 C -4.703125 -14.339844 -4.664062 -14.410156 -4.65625 -14.460938 C -4.648438 -14.507812 -4.648438 -14.507812 -4.617188 -14.527344 C -4.53125 -14.589844 -4.453125 -14.601562 -4.390625 -14.515625 C -4.324219 -14.476562 -4.28125 -14.417969 -4.222656 -14.332031 C -3.804688 -13.796875 -3.527344 -13.210938 -3.316406 -12.535156 L -3.128906 -11.890625 C -3.09375 -11.78125 -3.003906 -11.714844 -2.839844 -11.785156 C -2.808594 -11.808594 -2.78125 -11.828125 -2.75 -11.847656 C -2.703125 -11.839844 -2.703125 -11.839844 -2.671875 -11.859375 C -2.527344 -11.960938 -2.441406 -12.148438 -2.457031 -12.355469 C -2.542969 -13.289062 -2.898438 -14.167969 -3.523438 -14.945312 C -3.6875 -15.179688 -3.894531 -15.292969 -4.152344 -15.289062 C -4.65625 -15.328125 -5.105469 -15.230469 -5.457031 -14.984375 C -5.71875 -14.800781 -5.929688 -14.484375 -6.050781 -14.097656 C -6.769531 -11.214844 -5.589844 -7.40625 -4.070312 -4.914062 C -3.601562 -4.242188 -3.277344 -3.777344 -2.730469 -3.421875 C -2.527344 -3.257812 -2.3125 -3.195312 -2.035156 -3.171875 C -1.570312 -3.191406 -1.238281 -3.335938 -0.871094 -3.550781 Z M -0.871094 -3.550781 "/></g></g></g><g fill="#f5f3f6" fill-opacity="1"><g transform="translate(164.524361, 216.291092)"><g><path d="M 2.992188 -4.464844 C 3.082031 -4.527344 3.207031 -4.65625 3.332031 -4.789062 C 3.535156 -5.058594 3.605469 -5.324219 3.710938 -5.613281 C 3.871094 -6.375 3.898438 -7.085938 3.832031 -7.863281 C 3.738281 -9.050781 3.625 -10.273438 3.484375 -11.472656 C 3.332031 -12.621094 3.1875 -13.820312 3.097656 -15.011719 C 3.105469 -15.058594 3.09375 -15.136719 3.054688 -15.195312 C 3.03125 -15.226562 2.992188 -15.285156 3 -15.332031 C 2.980469 -15.363281 2.910156 -15.402344 2.863281 -15.410156 C 2.734375 -15.40625 2.625 -15.375 2.480469 -15.273438 C 2.335938 -15.171875 2.265625 -15.082031 2.242188 -14.933594 C 2.1875 -14.074219 2.324219 -13.261719 2.429688 -12.425781 C 2.632812 -11.136719 3.132812 -6.941406 2.722656 -5.789062 C 2.683594 -5.59375 2.617188 -5.5 2.546875 -5.539062 C 2.5 -5.546875 2.480469 -5.578125 2.429688 -5.585938 C 2.378906 -5.59375 2.359375 -5.625 2.339844 -5.652344 L 2.097656 -6.003906 C 1.527344 -6.820312 1.074219 -7.71875 0.710938 -8.675781 L -0.820312 -12.371094 C -0.976562 -12.78125 -1.191406 -13.148438 -1.484375 -13.507812 C -1.789062 -13.945312 -2.175781 -14.066406 -2.675781 -13.847656 C -3.34375 -13.382812 -3.488281 -13.152344 -3.546875 -12.246094 C -3.625 -11.671875 -3.59375 -11.128906 -3.5625 -10.589844 L -3.460938 -9.320312 C -3.445312 -9.113281 -3.453125 -8.9375 -3.519531 -8.847656 L -3.5 -8.816406 C -3.648438 -8.972656 -3.769531 -9.148438 -3.816406 -9.332031 C -3.992188 -9.902344 -4.203125 -10.449219 -4.378906 -11.015625 C -4.558594 -11.585938 -4.769531 -12.132812 -4.96875 -12.730469 C -5.082031 -13.082031 -5.097656 -13.414062 -5.007812 -13.78125 C -4.535156 -15.714844 -3.667969 -19.5625 -4.824219 -21.226562 C -5.207031 -21.78125 -6.148438 -21.515625 -6.585938 -21.210938 C -7.023438 -20.90625 -7.308594 -20.445312 -7.40625 -19.902344 C -7.503906 -19.359375 -7.542969 -18.855469 -7.5625 -18.324219 C -7.355469 -14.789062 -5.953125 -10.355469 -4.578125 -7.070312 C -4.308594 -6.4375 -4.058594 -5.832031 -3.644531 -5.296875 C -3.460938 -5.035156 -3.261719 -4.871094 -2.78125 -4.988281 C -2.554688 -5.101562 -2.449219 -5.132812 -2.246094 -5.277344 C -2.097656 -5.378906 -2.015625 -5.566406 -2.027344 -5.773438 C -2.023438 -5.949219 -2.042969 -6.105469 -2.089844 -6.292969 C -2.109375 -6.449219 -2.132812 -6.609375 -2.15625 -6.765625 C -2.199219 -7.386719 -2.289062 -8.015625 -2.382812 -8.644531 C -2.472656 -9.269531 -2.566406 -9.898438 -2.605469 -10.519531 C -2.699219 -11.148438 -2.691406 -11.761719 -2.574219 -12.402344 C -2.519531 -12.445312 -2.488281 -12.464844 -2.4375 -12.453125 C -2.410156 -12.476562 -2.390625 -12.445312 -2.371094 -12.417969 C -2.289062 -12.300781 -2.257812 -12.191406 -2.203125 -12.054688 C -2.007812 -11.585938 -1.839844 -11.097656 -1.671875 -10.609375 C -1.503906 -10.117188 -1.335938 -9.628906 -1.140625 -9.160156 C -0.589844 -7.683594 0.078125 -6.289062 1.003906 -5.027344 C 1.0625 -4.9375 1.125 -4.851562 1.183594 -4.761719 C 1.246094 -4.675781 1.328125 -4.558594 1.417969 -4.492188 C 1.628906 -4.25 1.894531 -4.175781 2.261719 -4.214844 C 2.546875 -4.238281 2.789062 -4.324219 2.992188 -4.464844 Z M -5.585938 -15.542969 C -5.671875 -15.484375 -5.714844 -15.542969 -5.765625 -15.679688 C -6.097656 -16.960938 -6.238281 -18.160156 -6.257812 -19.492188 C -6.230469 -19.640625 -6.195312 -19.839844 -6.167969 -19.988281 C -6.140625 -20.132812 -6.136719 -20.3125 -6.109375 -20.460938 C -6.070312 -20.53125 -6.023438 -20.648438 -5.925781 -20.761719 C -5.917969 -20.808594 -5.78125 -20.859375 -5.71875 -20.773438 C -5.671875 -20.765625 -5.652344 -20.734375 -5.589844 -20.648438 C -4.898438 -19.65625 -5.304688 -16.820312 -5.507812 -15.683594 C -5.519531 -15.632812 -5.519531 -15.632812 -5.546875 -15.613281 C -5.578125 -15.59375 -5.578125 -15.59375 -5.585938 -15.542969 Z M -5.585938 -15.542969 "/></g></g></g><g fill="#f5f3f6" fill-opacity="1"><g transform="translate(172.278332, 210.892504)"><g><path d="M -1.515625 -4.355469 C -1.3125 -4.496094 -1.191406 -4.753906 -1.175781 -5.109375 C -1.160156 -5.335938 -1.195312 -5.574219 -1.210938 -5.777344 C -1.265625 -6.042969 -1.3125 -6.359375 -1.367188 -6.625 C -1.421875 -6.886719 -1.476562 -7.152344 -1.53125 -7.417969 C -1.605469 -7.839844 -1.664062 -8.234375 -1.742188 -8.65625 C -1.828125 -9.027344 -1.886719 -9.421875 -1.941406 -9.8125 C -2.078125 -10.757812 -2.332031 -12.921875 -1.632812 -13.535156 C -1.605469 -13.554688 -1.597656 -13.734375 -1.617188 -13.761719 C -1.667969 -13.769531 -1.738281 -13.808594 -1.785156 -13.816406 L -2.199219 -13.660156 C -2.226562 -13.640625 -2.253906 -13.621094 -2.304688 -13.628906 C -2.335938 -13.609375 -2.363281 -13.589844 -2.390625 -13.570312 C -2.945312 -13.183594 -2.976562 -12.296875 -2.9375 -11.675781 C -2.984375 -10.257812 -2.710938 -8.804688 -2.425781 -7.398438 L -2.355469 -6.800781 C -2.363281 -6.75 -2.371094 -6.703125 -2.382812 -6.652344 C -2.390625 -6.601562 -2.417969 -6.582031 -2.4375 -6.613281 C -2.527344 -6.679688 -2.578125 -6.6875 -2.597656 -6.71875 L -4.230469 -9.996094 C -4.40625 -10.304688 -4.550781 -10.636719 -4.714844 -11 C -4.890625 -11.3125 -5.105469 -11.683594 -5.367188 -12.0625 L -5.632812 -12.441406 C -5.84375 -12.683594 -6.203125 -12.515625 -6.410156 -12.375 C -6.425781 -12.277344 -6.433594 -12.226562 -6.433594 -12.226562 C -6.464844 -11.339844 -3.964844 -6.070312 -3.292969 -4.976562 C -3.210938 -4.863281 -3.128906 -4.746094 -3.019531 -4.648438 C -2.9375 -4.53125 -2.859375 -4.414062 -2.777344 -4.300781 C -2.625 -4.144531 -2.4375 -4.058594 -2.171875 -4.113281 C -2.09375 -4.125 -1.964844 -4.128906 -1.828125 -4.179688 C -1.722656 -4.210938 -1.632812 -4.273438 -1.515625 -4.355469 Z M -1.515625 -4.355469 "/></g></g></g><g fill="#f5f3f6" fill-opacity="1"><g transform="translate(177.467082, 207.279913)"><g><path d="M -0.683594 -3.03125 C 0.046875 -3.539062 0.207031 -4.429688 0.296875 -5.226562 C 0.359375 -6.136719 0.371094 -7.050781 0.382812 -7.96875 C 0.355469 -8.6875 0.339844 -9.457031 0.316406 -10.175781 C 0.292969 -10.894531 0.269531 -11.613281 0.242188 -12.332031 C 0.210938 -12.4375 0.21875 -12.617188 0.203125 -12.824219 C 0.191406 -13.03125 0.148438 -13.214844 0.0859375 -13.304688 C 0.0664062 -13.332031 -0.00390625 -13.371094 -0.0546875 -13.378906 C -0.171875 -13.425781 -0.28125 -13.394531 -0.398438 -13.3125 C -0.484375 -13.253906 -0.550781 -13.164062 -0.570312 -13.0625 C -0.578125 -13.015625 -0.566406 -12.9375 -0.546875 -12.90625 C -0.554688 -12.859375 -0.542969 -12.777344 -0.550781 -12.730469 L -0.476562 -8.886719 C -0.417969 -8.0625 -0.453125 -4.316406 -1.09375 -3.871094 C -1.210938 -3.789062 -1.378906 -3.84375 -1.550781 -4.027344 L -1.691406 -4.230469 C -2.207031 -4.910156 -2.65625 -5.679688 -3.027344 -6.460938 L -3.359375 -7.3125 C -3.445312 -7.558594 -3.410156 -7.753906 -3.253906 -7.90625 C -3.128906 -8.035156 -3.050781 -8.175781 -2.957031 -8.285156 C -2.859375 -8.398438 -2.761719 -8.507812 -2.6875 -8.644531 C -2.226562 -9.660156 -1.894531 -10.929688 -2.28125 -12.042969 C -2.503906 -12.796875 -2.964844 -13.085938 -3.730469 -12.941406 C -4.09375 -12.902344 -4.296875 -12.761719 -4.617188 -12.539062 C -4.851562 -12.375 -5.023438 -12.125 -5.183594 -11.796875 C -5.296875 -11.460938 -5.347656 -11.164062 -5.394531 -10.917969 C -5.5 -10.324219 -5.488281 -9.683594 -5.414062 -9.082031 C -5.085938 -6.933594 -4.28125 -5.027344 -2.964844 -3.390625 L -2.554688 -2.984375 C -2 -2.5 -1.234375 -2.644531 -0.683594 -3.03125 Z M -3.59375 -8.578125 C -3.699219 -8.546875 -3.742188 -8.605469 -3.773438 -8.714844 C -4.003906 -9.417969 -4.367188 -11.804688 -3.726562 -12.25 C -3.609375 -12.332031 -3.480469 -12.335938 -3.351562 -12.210938 L -3.308594 -12.152344 C -2.742188 -11.335938 -2.921875 -9.480469 -3.476562 -8.660156 C -3.484375 -8.609375 -3.542969 -8.570312 -3.59375 -8.578125 Z M -3.59375 -8.578125 "/></g></g></g><g fill="#f5f3f6" fill-opacity="1"><g transform="translate(182.306028, 203.910868)"><g><path d="M -1.535156 -3.820312 C -1.15625 -4.085938 -0.988281 -4.589844 -0.890625 -5.007812 C -0.742188 -5.976562 -0.671875 -6.933594 -0.703125 -7.90625 C -0.742188 -8.527344 -0.785156 -9.148438 -0.828125 -9.769531 C -0.851562 -10.359375 -0.871094 -10.949219 -0.914062 -11.570312 L -0.984375 -12.167969 C -0.976562 -12.347656 -1.246094 -12.417969 -1.410156 -12.347656 C -1.460938 -12.355469 -1.519531 -12.316406 -1.605469 -12.253906 C -1.722656 -12.171875 -1.800781 -12.035156 -1.816406 -11.808594 C -1.820312 -11.628906 -1.796875 -11.472656 -1.796875 -11.34375 C -1.773438 -11.1875 -1.75 -11.03125 -1.777344 -10.882812 L -1.578125 -8.292969 L -1.578125 -6.867188 C -1.585938 -6.382812 -1.695312 -5.917969 -1.792969 -5.375 C -1.800781 -5.324219 -1.832031 -5.304688 -1.839844 -5.253906 C -1.847656 -5.203125 -1.878906 -5.183594 -1.886719 -5.136719 C -1.894531 -5.085938 -1.925781 -5.066406 -1.984375 -5.023438 C -2.089844 -4.992188 -2.140625 -5 -2.203125 -5.089844 C -2.355469 -5.371094 -2.488281 -5.625 -2.621094 -5.878906 C -2.753906 -6.132812 -2.886719 -6.386719 -3.019531 -6.640625 C -3.421875 -7.527344 -3.734375 -8.347656 -4.078125 -9.277344 L -4.410156 -10.128906 C -4.503906 -10.324219 -4.613281 -10.421875 -4.800781 -10.378906 C -5.007812 -10.363281 -5.117188 -10.332031 -5.117188 -10.332031 L -5.203125 -10.269531 C -5.4375 -10.109375 -5.429688 -9.851562 -5.375 -9.585938 C -5.132812 -7.679688 -4.464844 -5.980469 -3.429688 -4.492188 C -3.351562 -4.375 -3.269531 -4.257812 -3.1875 -4.144531 C -3.105469 -4.027344 -2.996094 -3.929688 -2.90625 -3.863281 C -2.515625 -3.488281 -1.972656 -3.515625 -1.535156 -3.820312 Z M -5.542969 -12.371094 C -5.453125 -12.433594 -5.367188 -12.496094 -5.335938 -12.515625 C -5.308594 -12.535156 -5.269531 -12.605469 -5.203125 -12.695312 C -5.101562 -12.984375 -5.277344 -13.421875 -5.566406 -13.523438 C -5.710938 -13.550781 -5.882812 -13.605469 -6.070312 -13.691406 C -6.289062 -13.757812 -6.476562 -13.714844 -6.621094 -13.613281 C -6.765625 -13.511719 -6.84375 -13.371094 -6.820312 -13.214844 C -6.785156 -12.976562 -6.671875 -12.753906 -6.511719 -12.519531 C -6.367188 -12.316406 -6.160156 -12.203125 -5.894531 -12.257812 C -5.816406 -12.269531 -5.738281 -12.28125 -5.679688 -12.320312 C -5.648438 -12.339844 -5.589844 -12.382812 -5.542969 -12.371094 Z M -5.542969 -12.371094 "/></g></g></g><g fill="#f5f3f6" fill-opacity="1"><g transform="translate(185.920659, 201.394235)"><g><path d="M 0.660156 -4.960938 C 1.386719 -5.46875 1.433594 -6.582031 1.289062 -7.347656 C 1.128906 -8.574219 0.796875 -9.730469 0.449219 -10.917969 C 0.167969 -11.757812 -0.261719 -12.5 -0.777344 -13.179688 C -0.890625 -13.273438 -0.96875 -13.390625 -1.082031 -13.488281 C -1.191406 -13.582031 -1.300781 -13.679688 -1.421875 -13.726562 C -1.929688 -14.023438 -2.417969 -13.855469 -2.855469 -13.550781 C -3.554688 -13.0625 -3.675781 -12.242188 -3.769531 -11.441406 C -3.785156 -11.214844 -3.820312 -11.019531 -3.804688 -10.8125 C -3.789062 -10.605469 -3.828125 -10.40625 -3.839844 -10.179688 C -3.851562 -10.128906 -3.867188 -10.03125 -3.933594 -9.941406 C -3.964844 -9.921875 -4.125 -10.027344 -4.15625 -10.132812 L -4.550781 -11.070312 C -4.601562 -11.210938 -4.625 -11.367188 -4.65625 -11.472656 C -4.6875 -11.582031 -4.738281 -11.71875 -4.714844 -11.867188 C -4.648438 -14.074219 -4.855469 -19.34375 -5.96875 -21.25 C -6.039062 -21.417969 -6.121094 -21.535156 -6.25 -21.660156 C -6.554688 -22.097656 -7.359375 -21.882812 -7.707031 -21.640625 C -9.019531 -20.726562 -8.386719 -17.578125 -7.992188 -16.078125 C -7.121094 -12.527344 -5.746094 -8.9375 -3.636719 -5.90625 L -2.96875 -4.945312 C -2.90625 -4.859375 -2.867188 -4.800781 -2.804688 -4.710938 C -2.742188 -4.625 -2.703125 -4.566406 -2.613281 -4.5 C -2.402344 -4.257812 -2.203125 -4.222656 -1.949219 -4.355469 C -1.746094 -4.496094 -1.628906 -4.578125 -1.5625 -4.667969 C -1.417969 -4.769531 -1.359375 -4.9375 -1.453125 -5.132812 L -1.691406 -5.660156 C -1.773438 -5.777344 -1.851562 -5.894531 -1.925781 -6.058594 C -2.007812 -6.175781 -2.089844 -6.292969 -2.1875 -6.4375 C -2.953125 -7.722656 -3.035156 -9.832031 -2.976562 -11.300781 C -2.9375 -11.804688 -2.859375 -12.25 -2.699219 -12.707031 C -2.691406 -12.753906 -2.652344 -12.824219 -2.644531 -12.875 C -2.617188 -12.894531 -2.558594 -12.933594 -2.546875 -12.984375 C -2.460938 -13.046875 -2.375 -13.105469 -2.3125 -13.019531 C -2.203125 -12.921875 -2.113281 -12.855469 -2.070312 -12.796875 C -1.699219 -12.320312 -1.402344 -11.835938 -1.164062 -11.308594 C -0.472656 -9.753906 -0.144531 -8.164062 0.117188 -6.484375 C 0.148438 -6.378906 0.160156 -6.300781 0.132812 -6.152344 C 0.125 -6.101562 0.0859375 -6.03125 0.0546875 -6.011719 C -0.00390625 -5.972656 -0.0507812 -5.980469 -0.09375 -6.039062 C -0.472656 -6.335938 -0.65625 -6.726562 -0.785156 -7.15625 C -0.960938 -7.597656 -1.109375 -8.058594 -1.148438 -8.550781 C -1.152344 -8.675781 -1.171875 -8.835938 -1.207031 -8.941406 C -1.179688 -9.089844 -1.347656 -9.144531 -1.457031 -9.113281 L -1.679688 -9 C -1.765625 -8.941406 -1.835938 -8.851562 -1.859375 -8.703125 C -1.902344 -7.765625 -1.777344 -7.027344 -1.433594 -6.101562 C -1.214844 -5.601562 -0.914062 -5.292969 -0.492188 -4.9375 C -0.222656 -4.734375 0.0742188 -4.683594 0.433594 -4.847656 C 0.464844 -4.867188 0.523438 -4.90625 0.550781 -4.929688 C 0.601562 -4.917969 0.628906 -4.9375 0.660156 -4.960938 Z M -5.628906 -14.300781 C -5.695312 -14.210938 -5.71875 -14.242188 -5.789062 -14.40625 C -5.808594 -14.4375 -5.808594 -14.4375 -5.800781 -14.484375 C -5.800781 -14.484375 -5.800781 -14.484375 -5.820312 -14.515625 C -6.019531 -15.113281 -6.210938 -15.757812 -6.410156 -16.355469 C -6.609375 -16.953125 -6.800781 -17.597656 -6.941406 -18.238281 C -7.082031 -18.875 -7.230469 -19.460938 -7.214844 -20.121094 L -7.167969 -20.804688 C -7.164062 -20.980469 -7.050781 -21.191406 -6.960938 -21.125 C -6.871094 -21.054688 -6.800781 -21.019531 -6.78125 -20.988281 C -6.210938 -20.171875 -5.835938 -18.269531 -5.738281 -17.253906 C -5.652344 -16.320312 -5.582031 -15.417969 -5.554688 -14.441406 C -5.5625 -14.390625 -5.601562 -14.320312 -5.628906 -14.300781 Z M -5.628906 -14.300781 "/></g></g></g><g fill="#f5f3f6" fill-opacity="1"><g transform="translate(192.479468, 196.827761)"><g><path d="M -10.03125 -19.070312 C -9.769531 -19.253906 -9.667969 -19.542969 -9.703125 -19.90625 L -9.894531 -20.550781 C -10.121094 -21.128906 -10.378906 -21.683594 -10.617188 -22.210938 C -10.648438 -22.320312 -10.699219 -22.457031 -10.761719 -22.542969 C -10.824219 -22.632812 -10.863281 -22.691406 -10.875 -22.769531 C -11.363281 -23.46875 -12.253906 -24.1875 -12.980469 -23.683594 C -13.1875 -23.539062 -13.292969 -23.378906 -13.335938 -23.132812 C -13.410156 -22.863281 -13.402344 -22.609375 -13.320312 -22.363281 C -13.171875 -21.90625 -12.875 -21.722656 -12.453125 -21.800781 C -12.402344 -21.792969 -12.324219 -21.804688 -12.292969 -21.824219 C -12.070312 -21.9375 -11.910156 -21.832031 -11.757812 -21.546875 C -11.367188 -20.738281 -10.964844 -19.976562 -10.820312 -19.085938 C -10.785156 -18.847656 -10.644531 -18.773438 -10.421875 -18.886719 C -10.3125 -18.917969 -10.175781 -18.96875 -10.03125 -19.070312 Z M -10.03125 -19.070312 "/></g></g></g><g fill="#f5f3f6" fill-opacity="1"><g transform="translate(197.289261, 193.479013)"><g><path d="M 1.101562 -0.59375 C 2.152344 -1.324219 2.191406 -3.257812 1.65625 -4.398438 C 1.230469 -5.445312 0.699219 -6.332031 -0.25 -7.011719 C -0.539062 -7.242188 -0.617188 -7.535156 -0.554688 -7.882812 C -0.515625 -7.953125 -0.496094 -8.050781 -0.507812 -8.128906 C -0.375 -8.871094 -0.214844 -9.632812 -0.0820312 -10.375 C 0.0703125 -11.085938 0.203125 -11.828125 0.335938 -12.570312 C 0.335938 -12.699219 0.363281 -12.847656 0.398438 -13.042969 C 0.382812 -13.25 0.320312 -13.339844 0.136719 -13.296875 C 0.0078125 -13.292969 -0.101562 -13.261719 -0.21875 -13.179688 C -0.304688 -13.117188 -0.371094 -13.027344 -0.398438 -12.878906 L -1.164062 -8.757812 C -1.199219 -8.558594 -1.261719 -8.339844 -1.328125 -8.121094 C -1.335938 -8.074219 -1.375 -8.003906 -1.402344 -7.984375 C -1.664062 -7.800781 -4.027344 -9.703125 -4.097656 -9.742188 C -4.410156 -10 -4.683594 -10.332031 -4.917969 -10.730469 C -5.210938 -11.089844 -5.425781 -11.457031 -5.5 -11.878906 C -5.660156 -12.417969 -5.699219 -12.910156 -5.40625 -13.417969 C -5.394531 -13.46875 -5.367188 -13.488281 -5.335938 -13.507812 C -5.25 -13.570312 -5.140625 -13.601562 -5.050781 -13.535156 C -4.703125 -13.34375 -4.492188 -13.101562 -4.386719 -12.828125 C -4.089844 -12.214844 -3.804688 -11.679688 -3.605469 -11.082031 C -3.570312 -10.972656 -3.519531 -10.835938 -3.457031 -10.75 C -3.40625 -10.613281 -3.324219 -10.496094 -3.292969 -10.386719 C -3.222656 -10.222656 -3.082031 -10.144531 -2.886719 -10.238281 C -2.859375 -10.257812 -2.828125 -10.277344 -2.800781 -10.300781 C -2.75 -10.289062 -2.75 -10.289062 -2.722656 -10.3125 C -2.574219 -10.414062 -2.519531 -10.582031 -2.5625 -10.765625 L -2.597656 -11.003906 C -2.804688 -11.984375 -3.175781 -12.894531 -3.726562 -13.679688 C -4.128906 -14.136719 -4.585938 -14.292969 -5.066406 -14.175781 C -5.273438 -14.160156 -5.488281 -14.097656 -5.652344 -14.027344 C -5.839844 -13.980469 -6.003906 -13.910156 -6.179688 -13.789062 C -6.441406 -13.605469 -6.652344 -13.285156 -6.773438 -12.898438 C -6.976562 -12.195312 -6.894531 -11.515625 -6.574219 -10.875 C -6.164062 -10.035156 -5.628906 -9.324219 -4.9375 -8.769531 C -4.113281 -8.085938 -3.207031 -7.464844 -2.316406 -6.871094 C -1.527344 -6.296875 -1.628906 -6.570312 -1.730469 -5.589844 C -1.832031 -4.4375 -1.800781 -3.332031 -1.691406 -2.242188 C -1.640625 -2.105469 -1.617188 -1.949219 -1.59375 -1.789062 C -1.570312 -1.632812 -1.546875 -1.476562 -1.496094 -1.339844 C -1.210938 -0.496094 -0.367188 -0.0898438 0.515625 -0.316406 C 0.730469 -0.378906 0.925781 -0.472656 1.101562 -0.59375 Z M 0.550781 -1.074219 C 0.460938 -1.015625 0.355469 -0.984375 0.234375 -1.03125 C -0.0820312 -1.113281 -0.324219 -1.332031 -0.515625 -1.675781 C -0.941406 -2.285156 -0.953125 -4.355469 -0.871094 -5.105469 C -0.902344 -5.214844 -0.84375 -5.253906 -0.738281 -5.285156 C -0.6875 -5.277344 -0.617188 -5.238281 -0.597656 -5.210938 C -0.507812 -5.144531 -0.398438 -5.046875 -0.316406 -4.929688 C -0.234375 -4.8125 -0.132812 -4.667969 -0.0625 -4.5 C 0.203125 -4.121094 0.40625 -3.703125 0.574219 -3.214844 C 0.753906 -2.773438 0.957031 -1.359375 0.550781 -1.074219 Z M 0.550781 -1.074219 "/></g></g></g><g fill="#f5f3f6" fill-opacity="1"><g transform="translate(202.273952, 190.008496)"><g/></g></g><g fill="#f5f3f6" fill-opacity="1"><g transform="translate(209.853017, 184.731683)"><g><path d="M 2.707031 -5.996094 C 3 -6.199219 3.179688 -6.5 3.28125 -6.914062 C 3.371094 -7.28125 3.433594 -7.625 3.472656 -8.003906 C 3.503906 -8.585938 3.488281 -9.222656 3.503906 -9.886719 L 3.390625 -12.660156 C 3.394531 -12.964844 3.347656 -13.28125 3.332031 -13.617188 C 3.285156 -13.929688 3.238281 -14.246094 3.222656 -14.578125 C 3.210938 -14.785156 3.136719 -14.953125 3.105469 -15.058594 C 3.105469 -15.058594 3.085938 -15.089844 3.023438 -15.175781 C 2.894531 -15.300781 2.734375 -15.277344 2.53125 -15.136719 C 2.445312 -15.074219 2.40625 -15.007812 2.417969 -14.925781 C 2.382812 -14.730469 2.398438 -14.523438 2.441406 -14.335938 C 2.640625 -12.746094 2.789062 -9.171875 2.507812 -7.589844 C 2.480469 -7.441406 2.433594 -7.320312 2.386719 -7.203125 C 2.359375 -7.054688 2.3125 -6.933594 2.238281 -6.792969 C 2.207031 -6.773438 2.207031 -6.773438 2.207031 -6.773438 C 2.230469 -6.746094 2.230469 -6.746094 2.199219 -6.726562 C 2.113281 -6.664062 2.011719 -6.683594 1.894531 -6.730469 C 1.582031 -6.988281 1.449219 -7.371094 1.253906 -7.710938 C 0.789062 -8.816406 0.332031 -9.839844 0.0546875 -10.988281 C -0.0976562 -11.703125 -0.25 -12.421875 -0.433594 -13.117188 C -0.429688 -13.421875 -0.875 -15.058594 -0.976562 -15.203125 C -1.050781 -15.371094 -1.167969 -15.417969 -1.324219 -15.394531 C -1.472656 -15.421875 -1.582031 -15.390625 -1.699219 -15.308594 C -1.84375 -15.207031 -1.921875 -15.066406 -1.90625 -14.859375 C -1.878906 -14.574219 -1.894531 -14.347656 -1.910156 -14.121094 L -1.914062 -12.257812 C -1.9375 -12.109375 -1.957031 -12.011719 -1.996094 -11.941406 C -1.996094 -11.941406 -2.023438 -11.921875 -2.113281 -11.859375 L -2.480469 -12.078125 C -3.214844 -12.390625 -3.894531 -12.308594 -4.507812 -11.882812 C -4.886719 -11.617188 -5.183594 -11.238281 -5.351562 -10.730469 C -5.441406 -10.363281 -5.503906 -10.019531 -5.484375 -9.554688 C -5.457031 -9.269531 -5.453125 -9.015625 -5.449219 -8.757812 C -5.421875 -8.472656 -5.398438 -8.1875 -5.371094 -7.902344 C -5.253906 -6.988281 -4.921875 -6.136719 -4.375 -5.351562 C -3.800781 -4.710938 -3.011719 -4.699219 -2.28125 -5.078125 L -2.105469 -5.199219 C -1.902344 -5.339844 -1.765625 -5.523438 -1.710938 -5.691406 C -1.480469 -6.542969 -1.347656 -7.285156 -1.269531 -8.164062 C -1.242188 -8.3125 -1.222656 -8.410156 -1.199219 -8.558594 L -1.140625 -8.597656 C -1.039062 -8.582031 -0.992188 -8.570312 -0.992188 -8.570312 C -0.96875 -8.542969 -0.929688 -8.484375 -0.910156 -8.457031 C -0.898438 -8.378906 -0.859375 -8.320312 -0.835938 -8.289062 C -0.703125 -8.035156 -0.601562 -7.761719 -0.46875 -7.507812 C -0.363281 -7.234375 -0.230469 -6.980469 -0.0742188 -6.699219 C 0.554688 -5.796875 1.6875 -5.285156 2.707031 -5.996094 Z M -2.796875 -6.191406 C -2.902344 -6.160156 -3.011719 -6.253906 -3.113281 -6.402344 C -3.699219 -7.550781 -4.527344 -11.042969 -3.597656 -11.691406 C -3.480469 -11.773438 -3.351562 -11.777344 -3.210938 -11.699219 C -3.042969 -11.644531 -2.953125 -11.578125 -2.882812 -11.539062 C -2.710938 -11.355469 -2.496094 -11.289062 -2.199219 -11.367188 C -2.09375 -11.398438 -2.003906 -11.332031 -1.949219 -11.195312 C -1.949219 -11.195312 -1.960938 -11.144531 -1.96875 -11.09375 C -2.007812 -9.722656 -2.101562 -8.492188 -2.371094 -7.136719 C -2.398438 -6.988281 -2.445312 -6.867188 -2.492188 -6.75 C -2.539062 -6.628906 -2.613281 -6.488281 -2.640625 -6.339844 C -2.648438 -6.292969 -2.707031 -6.25 -2.796875 -6.191406 Z M -2.796875 -6.191406 "/></g></g></g><g fill="#f5f3f6" fill-opacity="1"><g transform="translate(217.548683, 179.373689)"><g><path d="M 1.894531 -6.296875 C 2.214844 -6.519531 2.375 -6.847656 2.335938 -7.210938 C 2.351562 -7.4375 2.359375 -7.613281 2.328125 -7.722656 C 2.101562 -9.601562 1.957031 -11.359375 1.792969 -13.277344 L 1.679688 -13.9375 C 1.625 -14.203125 1.457031 -14.257812 1.230469 -14.144531 C 1.027344 -14.003906 0.953125 -13.863281 0.964844 -13.65625 C 1.148438 -11.835938 1.316406 -10.046875 1.398438 -8.246094 L 1.378906 -7.839844 C 1.351562 -7.820312 1.351562 -7.820312 1.339844 -7.773438 C 1.234375 -7.738281 1.183594 -7.75 1.164062 -7.777344 L 0.878906 -8.1875 L 0.0585938 -9.738281 C -0.277344 -10.410156 -0.648438 -11.0625 -0.945312 -11.675781 C -1.027344 -11.792969 -1.109375 -11.910156 -1.167969 -11.996094 C -1.230469 -12.085938 -1.3125 -12.203125 -1.402344 -12.269531 C -1.480469 -12.386719 -1.601562 -12.433594 -1.789062 -12.390625 C -1.992188 -12.375 -2.132812 -12.324219 -2.21875 -12.261719 C -2.394531 -12.140625 -2.476562 -11.953125 -2.480469 -11.644531 C -2.46875 -11.4375 -2.484375 -11.210938 -2.449219 -10.976562 L -2.277344 -9.234375 C -2.183594 -8.605469 -1.875 -6.484375 -2.128906 -5.917969 C -2.128906 -5.917969 -2.160156 -5.898438 -2.1875 -5.878906 L -2.238281 -5.886719 C -2.367188 -6.011719 -2.457031 -6.078125 -2.46875 -6.15625 C -2.621094 -6.441406 -2.726562 -6.714844 -2.878906 -6.996094 C -3.035156 -7.28125 -3.160156 -7.582031 -3.3125 -7.863281 C -3.476562 -8.226562 -3.664062 -8.617188 -3.816406 -9.027344 C -3.953125 -9.410156 -4.140625 -9.800781 -4.304688 -10.160156 C -4.335938 -10.269531 -4.386719 -10.40625 -4.46875 -10.523438 C -4.53125 -10.609375 -4.609375 -10.726562 -4.644531 -10.832031 C -4.746094 -10.980469 -4.914062 -11.035156 -5.097656 -10.992188 L -5.335938 -10.957031 C -5.539062 -10.816406 -5.734375 -10.722656 -5.710938 -10.4375 L -5.585938 -9.703125 C -5.128906 -7.984375 -4.496094 -6.519531 -3.707031 -4.949219 C -3.472656 -4.550781 -3.269531 -4.257812 -3 -4.058594 C -2.75 -3.886719 -2.5 -3.839844 -2.292969 -3.855469 C -2.039062 -3.859375 -1.792969 -3.945312 -1.589844 -4.085938 C -1.355469 -4.25 -1.242188 -4.457031 -1.199219 -4.707031 L -1.183594 -5.367188 L -1.28125 -7.375 C -1.296875 -7.582031 -1.332031 -7.816406 -1.316406 -8.042969 C -1.328125 -8.121094 -1.308594 -8.222656 -1.339844 -8.328125 C -1.351562 -8.40625 -1.34375 -8.457031 -1.234375 -8.488281 C -1.1875 -8.480469 -1.136719 -8.472656 -1.097656 -8.414062 C -1.035156 -8.324219 -0.996094 -8.265625 -0.984375 -8.1875 L -0.871094 -7.964844 C -0.757812 -7.738281 -0.664062 -7.542969 -0.542969 -7.371094 C -0.402344 -7.164062 -0.257812 -6.960938 -0.117188 -6.757812 C 0.0234375 -6.554688 0.226562 -6.390625 0.496094 -6.1875 C 0.964844 -5.953125 1.457031 -5.992188 1.894531 -6.296875 Z M 1.894531 -6.296875 "/></g></g></g><g fill="#f5f3f6" fill-opacity="1"><g transform="translate(223.786842, 175.030464)"><g><path d="M 2.808594 2.542969 C 3.832031 1.835938 3.605469 0.519531 3.164062 -0.429688 C 2.390625 -2.097656 1.386719 -3.605469 -0.117188 -4.765625 C -0.34375 -4.910156 -0.476562 -5.035156 -0.648438 -5.21875 C -1.117188 -5.585938 -1.617188 -5.929688 -2.175781 -6.234375 C -2.265625 -6.300781 -2.335938 -6.339844 -2.425781 -6.40625 C -2.496094 -6.441406 -2.59375 -6.460938 -2.683594 -6.527344 C -2.871094 -6.613281 -2.894531 -6.769531 -2.761719 -6.949219 L -1.503906 -9.125 C -0.886719 -10.289062 0.398438 -12.484375 0.574219 -13.472656 C 0.640625 -13.5625 0.53125 -13.65625 0.382812 -13.683594 C 0.207031 -13.691406 0.0976562 -13.660156 0.0117188 -13.597656 C -0.046875 -13.558594 -0.0859375 -13.488281 -0.152344 -13.398438 L -0.464844 -12.789062 C -1.03125 -11.488281 -1.664062 -10.222656 -2.371094 -8.996094 C -2.453125 -8.808594 -2.550781 -8.699219 -2.734375 -8.527344 C -2.714844 -8.496094 -2.714844 -8.496094 -2.734375 -8.527344 C -2.761719 -8.507812 -2.761719 -8.507812 -2.785156 -8.535156 C -2.8125 -8.515625 -2.832031 -8.542969 -2.851562 -8.574219 C -2.878906 -8.859375 -2.863281 -9.085938 -2.820312 -9.332031 C -2.671875 -11.296875 -2.886719 -13.222656 -3.507812 -15.171875 C -3.539062 -15.28125 -3.582031 -15.339844 -3.640625 -15.425781 C -3.703125 -15.511719 -3.742188 -15.570312 -3.773438 -15.679688 C -3.917969 -15.882812 -4.097656 -16.019531 -4.34375 -16.0625 C -4.761719 -16.164062 -5.183594 -16.085938 -5.589844 -15.800781 C -6.699219 -15.027344 -6.601562 -12.714844 -6.121094 -10.84375 C -5.679688 -8.902344 -4.9375 -6.90625 -4.355469 -5.320312 C -3.546875 -3.417969 -2.59375 -1.613281 -1.457031 0.148438 C -0.988281 0.816406 -0.589844 1.449219 0.0390625 1.921875 C 0.832031 2.625 1.789062 3.253906 2.808594 2.542969 Z M 2.398438 1.707031 C 2.371094 1.726562 2.320312 1.71875 2.269531 1.707031 C 2.121094 1.679688 2.003906 1.632812 1.894531 1.539062 C 1.441406 1.203125 1.023438 0.847656 0.699219 0.378906 C 0.566406 0.253906 0.464844 0.109375 0.394531 -0.0585938 C 0.292969 -0.203125 0.191406 -0.347656 0.0898438 -0.496094 C -0.835938 -1.886719 -1.664062 -3.386719 -2.355469 -4.9375 C -2.417969 -5.027344 -2.417969 -5.152344 -2.453125 -5.261719 C -2.363281 -5.324219 -2.335938 -5.34375 -2.335938 -5.34375 C -2.226562 -5.375 -2.15625 -5.335938 -2.117188 -5.277344 L -1.417969 -4.769531 C -1.285156 -4.644531 -1.148438 -4.570312 -1.035156 -4.472656 C -0.90625 -4.347656 -0.796875 -4.25 -0.664062 -4.125 C 0.667969 -3.019531 1.492188 -1.644531 2.1875 -0.09375 C 2.410156 0.355469 2.507812 0.804688 2.5 1.289062 C 2.492188 1.339844 2.511719 1.367188 2.5 1.417969 C 2.492188 1.46875 2.453125 1.535156 2.445312 1.585938 C 2.464844 1.617188 2.457031 1.664062 2.398438 1.707031 Z M -3.832031 -8.800781 C -3.863281 -8.78125 -3.882812 -8.808594 -3.902344 -8.839844 L -3.945312 -8.898438 C -4.003906 -8.984375 -4.066406 -9.070312 -4.054688 -9.121094 C -4.386719 -10.277344 -4.742188 -11.414062 -4.992188 -12.582031 C -5.105469 -13.238281 -5.160156 -13.9375 -5.085938 -14.636719 L -4.957031 -15.203125 C -4.949219 -15.25 -4.890625 -15.292969 -4.8125 -15.304688 C -4.8125 -15.304688 -4.761719 -15.296875 -4.664062 -15.277344 L -4.5625 -15.132812 C -3.769531 -13.996094 -3.589844 -10.3125 -3.714844 -8.882812 C -3.714844 -8.882812 -3.746094 -8.863281 -3.832031 -8.800781 Z M -3.832031 -8.800781 "/></g></g></g><g fill="#f5f3f6" fill-opacity="1"><g transform="translate(229.092192, 171.336692)"><g><path d="M -0.355469 -6.289062 C -0.265625 -6.351562 -0.210938 -6.519531 -0.222656 -6.726562 C -0.347656 -7.460938 -0.632812 -8 -0.933594 -8.613281 C -1.445312 -9.597656 -1.917969 -10.652344 -2.34375 -11.699219 C -3.355469 -14.328125 -4.539062 -16.835938 -5.929688 -19.332031 L -6.210938 -19.738281 C -6.3125 -19.886719 -6.453125 -19.960938 -6.652344 -19.996094 C -6.859375 -19.980469 -7.015625 -19.960938 -7.144531 -19.957031 C -7.28125 -19.90625 -7.347656 -19.816406 -7.292969 -19.679688 C -7.292969 -19.550781 -7.269531 -19.394531 -7.238281 -19.285156 C -6.894531 -18.355469 -6.519531 -17.445312 -6.117188 -16.558594 C -5.878906 -15.902344 -5.609375 -15.269531 -5.3125 -14.652344 C -5.042969 -14.019531 -4.753906 -13.355469 -4.511719 -12.699219 C -3.941406 -11.191406 -3.308594 -9.726562 -2.542969 -8.3125 C -2.390625 -8.03125 -2.234375 -7.75 -2.101562 -7.496094 C -1.949219 -7.210938 -1.816406 -6.960938 -1.664062 -6.675781 C -1.425781 -6.277344 -1.070312 -6.136719 -0.597656 -6.207031 C -0.460938 -6.257812 -0.382812 -6.269531 -0.355469 -6.289062 Z M 1.796875 -2.332031 C 2 -2.472656 2.085938 -2.664062 2 -2.90625 L 1.84375 -3.320312 C 1.773438 -3.355469 1.703125 -3.394531 1.644531 -3.480469 C 1.605469 -3.539062 1.535156 -3.578125 1.464844 -3.617188 C 1.015625 -3.824219 0.601562 -3.796875 0.203125 -3.5625 C -0.0195312 -3.449219 -0.0664062 -3.328125 0.0742188 -3.125 C 0.164062 -3.058594 0.257812 -2.863281 0.371094 -2.636719 C 0.535156 -2.277344 0.8125 -2.125 1.226562 -2.152344 C 1.304688 -2.164062 1.386719 -2.175781 1.441406 -2.214844 C 1.523438 -2.226562 1.578125 -2.269531 1.628906 -2.261719 C 1.679688 -2.25 1.738281 -2.292969 1.796875 -2.332031 Z M 1.796875 -2.332031 "/></g></g></g></svg>