<svg xmlns="http://www.w3.org/2000/svg" xmlns:xlink="http://www.w3.org/1999/xlink" width="500" zoomAndPan="magnify" viewBox="0 0 375 374.999991" height="500" preserveAspectRatio="xMidYMid meet" version="1.0"><defs><g/><clipPath id="10af67a93d"><path d="M 121 122 L 260.980469 122 L 260.980469 262.5 L 121 262.5 Z M 121 122 " clip-rule="nonzero"/></clipPath><clipPath id="1dadbf6526"><path d="M 145 112.5 L 173 112.5 L 173 142 L 145 142 Z M 145 112.5 " clip-rule="nonzero"/></clipPath></defs><rect x="-37.5" width="450" fill="#ffffff" y="-37.499999" height="449.999989" fill-opacity="1"/><rect x="-37.5" width="450" fill="#ffffff" y="-37.499999" height="449.999989" fill-opacity="1"/><rect x="-37.5" width="450" fill="#ffffff" y="-37.499999" height="449.999989" fill-opacity="1"/><g clip-path="url(#10af67a93d)"><path fill="#9d7fa4" d="M 191.253906 262.433594 C 181.839844 262.433594 172.707031 260.589844 164.109375 256.953125 C 155.808594 253.441406 148.351562 248.414062 141.949219 242.007812 C 135.546875 235.601562 130.515625 228.144531 127.003906 219.839844 C 123.367188 211.242188 121.527344 202.105469 121.527344 192.691406 C 121.527344 183.277344 123.367188 174.144531 127.003906 165.542969 C 130.515625 157.238281 135.542969 149.78125 141.949219 143.375 C 148.351562 136.972656 155.808594 131.941406 164.109375 128.429688 C 172.707031 124.792969 181.839844 122.949219 191.253906 122.949219 C 200.664062 122.949219 209.796875 124.792969 218.394531 128.429688 C 226.695312 131.941406 234.152344 136.96875 240.554688 143.375 C 246.957031 149.78125 251.988281 157.238281 255.5 165.542969 C 259.136719 174.144531 260.980469 183.277344 260.980469 192.691406 C 260.980469 204.566406 257.941406 216.292969 252.199219 226.601562 C 252.058594 226.851562 251.742188 226.941406 251.488281 226.800781 C 251.238281 226.660156 251.144531 226.34375 251.285156 226.09375 C 256.945312 215.9375 259.9375 204.386719 259.9375 192.691406 C 259.9375 154.8125 229.125 123.992188 191.253906 123.992188 C 153.378906 123.992188 122.570312 154.8125 122.570312 192.691406 C 122.570312 230.570312 153.378906 261.390625 191.253906 261.390625 C 199.71875 261.390625 207.988281 259.871094 215.820312 256.867188 C 216.089844 256.761719 216.390625 256.898438 216.496094 257.167969 C 216.597656 257.4375 216.464844 257.738281 216.195312 257.839844 C 208.238281 260.890625 199.847656 262.433594 191.253906 262.433594 Z M 191.253906 262.433594 " fill-opacity="1" fill-rule="nonzero"/></g><g clip-path="url(#1dadbf6526)"><path fill="#9d7fa4" d="M 145.800781 141.015625 C 145.742188 141.015625 145.6875 141.007812 145.628906 140.988281 C 145.382812 140.902344 145.234375 140.648438 145.289062 140.394531 C 146.085938 136.472656 146.824219 134.179688 148.863281 131.753906 C 150.085938 130.304688 151.613281 129.101562 152.945312 128.09375 C 156.320312 125.53125 159.886719 123.144531 163.542969 120.992188 L 164.066406 120.683594 C 165.671875 119.746094 167.332031 118.773438 168.660156 117.488281 C 169.957031 116.234375 170.945312 114.671875 171.527344 112.972656 C 171.613281 112.714844 171.882812 112.570312 172.144531 112.632812 C 172.40625 112.695312 172.578125 112.953125 172.535156 113.21875 C 172.050781 116.304688 170.824219 119.273438 168.980469 121.800781 C 166.21875 125.59375 162.179688 128.285156 158.226562 130.625 C 157.898438 130.820312 157.566406 131.015625 157.238281 131.207031 C 153.785156 133.234375 150.214844 135.332031 147.859375 138.507812 C 147.710938 138.707031 147.550781 138.910156 147.386719 139.121094 C 146.960938 139.65625 146.523438 140.210938 146.265625 140.726562 C 146.175781 140.910156 145.992188 141.015625 145.800781 141.015625 Z M 149.664062 132.425781 C 148.226562 134.136719 147.492188 135.742188 146.882812 138.066406 C 146.929688 138.007812 146.976562 137.949219 147.019531 137.886719 C 149.503906 134.539062 153.167969 132.390625 156.710938 130.308594 C 157.039062 130.117188 157.367188 129.921875 157.695312 129.730469 C 161.554688 127.441406 165.488281 124.828125 168.140625 121.1875 C 169.042969 119.949219 169.789062 118.597656 170.363281 117.175781 C 170.058594 117.550781 169.734375 117.90625 169.386719 118.238281 C 167.96875 119.613281 166.253906 120.613281 164.59375 121.585938 L 164.074219 121.890625 C 160.449219 124.019531 156.917969 126.386719 153.574219 128.925781 C 152.230469 129.945312 150.816406 131.054688 149.664062 132.425781 Z M 149.664062 132.425781 " fill-opacity="1" fill-rule="nonzero"/></g><path fill="#9d7fa4" d="M 141.589844 145.082031 C 141.4375 145.082031 141.289062 145.015625 141.1875 144.886719 C 141.019531 144.683594 141.03125 144.390625 141.210938 144.203125 C 143.960938 141.292969 145.796875 139.738281 148.808594 138.757812 C 150.613281 138.171875 152.542969 137.957031 154.207031 137.804688 C 158.425781 137.410156 162.714844 137.265625 166.957031 137.371094 L 167.5625 137.386719 C 169.421875 137.4375 171.347656 137.488281 173.15625 137.101562 C 174.917969 136.71875 176.582031 135.914062 177.972656 134.777344 C 178.179688 134.605469 178.484375 134.625 178.675781 134.820312 C 178.863281 135.011719 178.875 135.320312 178.695312 135.523438 C 176.65625 137.886719 174.046875 139.757812 171.148438 140.933594 C 166.800781 142.695312 161.949219 142.84375 157.355469 142.746094 C 156.972656 142.738281 156.589844 142.730469 156.207031 142.71875 C 152.207031 142.617188 148.066406 142.507812 144.386719 143.964844 C 144.160156 144.050781 143.914062 144.140625 143.664062 144.234375 C 143.019531 144.464844 142.355469 144.703125 141.863281 145.007812 C 141.78125 145.058594 141.683594 145.082031 141.589844 145.082031 Z M 149.132812 139.75 C 147.007812 140.441406 145.539062 141.417969 143.792969 143.074219 C 143.867188 143.046875 143.9375 143.019531 144.003906 142.992188 C 147.882812 141.460938 152.128906 141.570312 156.234375 141.675781 C 156.617188 141.683594 156.996094 141.695312 157.378906 141.703125 C 161.863281 141.800781 166.585938 141.65625 170.757812 139.964844 C 172.179688 139.390625 173.527344 138.636719 174.765625 137.734375 C 174.3125 137.890625 173.847656 138.019531 173.378906 138.121094 C 171.445312 138.535156 169.460938 138.484375 167.539062 138.429688 L 166.933594 138.414062 C 162.734375 138.3125 158.484375 138.457031 154.308594 138.84375 C 152.621094 138.996094 150.835938 139.195312 149.132812 139.75 Z M 149.132812 139.75 " fill-opacity="1" fill-rule="nonzero"/><path fill="#9d7fa4" d="M 122.207031 189.351562 C 122.046875 189.351562 121.894531 189.277344 121.792969 189.148438 C 120.453125 187.402344 119.484375 185.914062 118.746094 184.472656 C 116.59375 180.265625 115.929688 175.453125 115.5625 171.300781 C 115.46875 170.265625 115.390625 169.207031 115.316406 168.1875 C 115.066406 164.828125 114.808594 161.347656 114.03125 158.039062 C 113.976562 157.804688 114.089844 157.5625 114.300781 157.453125 C 114.515625 157.34375 114.777344 157.394531 114.933594 157.578125 C 118.429688 161.609375 120.707031 165.527344 121.90625 169.554688 C 123.269531 174.15625 123.175781 178.992188 122.9375 182.695312 C 122.816406 184.597656 122.761719 186.378906 122.761719 188.140625 C 122.761719 188.390625 122.75 188.632812 122.730469 188.878906 C 122.710938 189.089844 122.558594 189.269531 122.355469 189.332031 C 122.304688 189.34375 122.257812 189.351562 122.207031 189.351562 Z M 119.671875 183.996094 C 120.207031 185.039062 120.871094 186.109375 121.71875 187.296875 C 121.734375 185.785156 121.792969 184.25 121.894531 182.628906 C 122.128906 179.015625 122.222656 174.296875 120.902344 169.851562 C 119.90625 166.496094 118.121094 163.210938 115.464844 159.851562 C 115.945312 162.597656 116.152344 165.390625 116.355469 168.113281 C 116.429688 169.128906 116.507812 170.179688 116.601562 171.207031 C 116.957031 175.261719 117.601562 179.949219 119.671875 183.996094 Z M 119.671875 183.996094 " fill-opacity="1" fill-rule="nonzero"/><path fill="#9d7fa4" d="M 122.910156 185.589844 C 122.863281 185.589844 122.8125 185.582031 122.765625 185.570312 C 122.527344 185.5 122.371094 185.273438 122.390625 185.027344 C 122.449219 184.277344 122.570312 183.46875 122.757812 182.5625 C 123.171875 180.570312 123.667969 178.976562 124.316406 177.546875 C 126.011719 173.828125 128.960938 170.875 131.8125 168.023438 C 134.769531 165.066406 137.828125 162.003906 139.347656 158.152344 C 139.433594 157.9375 139.644531 157.804688 139.875 157.824219 C 140.105469 157.84375 140.292969 158.007812 140.34375 158.234375 C 141.253906 162.441406 139.773438 167.378906 136.28125 171.777344 C 134.328125 174.234375 131.96875 176.359375 129.691406 178.417969 C 128.507812 179.488281 127.285156 180.589844 126.140625 181.722656 C 124.914062 182.933594 123.976562 184.003906 123.394531 185.269531 C 123.386719 185.285156 123.378906 185.304688 123.371094 185.316406 C 123.277344 185.488281 123.097656 185.589844 122.910156 185.589844 Z M 139.550781 160.203125 C 137.832031 163.476562 135.152344 166.15625 132.546875 168.761719 C 129.761719 171.550781 126.882812 174.429688 125.265625 177.980469 C 124.65625 179.324219 124.183594 180.835938 123.789062 182.730469 C 124.292969 182.109375 124.851562 181.527344 125.410156 180.980469 C 126.570312 179.832031 127.800781 178.71875 128.992188 177.644531 C 131.238281 175.613281 133.5625 173.515625 135.460938 171.125 C 138.277344 167.582031 139.71875 163.691406 139.550781 160.203125 Z M 139.550781 160.203125 " fill-opacity="1" fill-rule="nonzero"/><path fill="#9d7fa4" d="M 124.066406 174.535156 C 124.042969 174.535156 124.019531 174.53125 123.996094 174.527344 C 123.757812 174.496094 123.570312 174.300781 123.546875 174.0625 C 122.457031 162.730469 124.195312 151.199219 128.582031 140.710938 C 128.679688 140.472656 128.9375 140.347656 129.183594 140.40625 C 129.433594 140.464844 129.601562 140.695312 129.582031 140.953125 C 129.394531 143.410156 129.445312 145.929688 129.496094 148.367188 C 129.546875 150.890625 129.597656 153.496094 129.386719 156.066406 C 128.902344 161.992188 127.105469 167.601562 124.554688 174.203125 C 124.476562 174.402344 124.28125 174.535156 124.066406 174.535156 Z M 128.410156 144.011719 C 125.195312 152.820312 123.824219 162.277344 124.40625 171.652344 C 126.484375 166.058594 127.929688 161.128906 128.347656 155.980469 C 128.554688 153.464844 128.5 150.882812 128.453125 148.386719 C 128.421875 146.949219 128.390625 145.480469 128.410156 144.011719 Z M 128.410156 144.011719 " fill-opacity="1" fill-rule="nonzero"/><path fill="#9d7fa4" d="M 128.964844 161.8125 C 128.847656 161.8125 128.730469 161.773438 128.636719 161.695312 C 128.441406 161.539062 128.386719 161.265625 128.503906 161.046875 C 129.175781 159.785156 130.191406 158.519531 131.699219 157.074219 C 138.117188 150.914062 146.078125 146.550781 154.726562 144.460938 C 154.953125 144.410156 155.1875 144.507812 155.300781 144.710938 C 155.417969 144.914062 155.386719 145.167969 155.222656 145.332031 C 151.867188 148.796875 148.398438 152.378906 144.023438 154.734375 C 142.222656 155.703125 140.140625 156.492188 138.132812 157.25 C 134.964844 158.449219 131.6875 159.691406 129.300781 161.691406 C 129.203125 161.773438 129.085938 161.8125 128.964844 161.8125 Z M 132.421875 157.828125 C 131.925781 158.304688 131.488281 158.753906 131.097656 159.195312 C 133.160156 158.015625 135.488281 157.132812 137.761719 156.273438 C 139.832031 155.488281 141.785156 154.75 143.53125 153.8125 C 147.207031 151.832031 150.265625 148.914062 153.171875 145.949219 C 145.398438 148.140625 138.257812 152.222656 132.421875 157.828125 Z M 132.421875 157.828125 " fill-opacity="1" fill-rule="nonzero"/><path fill="#9d7fa4" d="M 132.011719 156.800781 C 131.976562 156.800781 131.9375 156.800781 131.902344 156.789062 C 131.71875 156.753906 131.574219 156.617188 131.515625 156.441406 C 131.195312 155.445312 131.0625 154.320312 131.132812 153.183594 C 131.261719 151.230469 131.921875 149.390625 132.621094 147.695312 C 133.414062 145.753906 134.324219 143.835938 135.203125 141.976562 C 136.179688 139.914062 137.191406 137.78125 138.039062 135.628906 C 139.609375 131.648438 140.195312 122.957031 140.203125 122.871094 C 140.21875 122.609375 140.429688 122.398438 140.691406 122.382812 C 140.953125 122.367188 141.1875 122.550781 141.234375 122.808594 C 141.328125 123.296875 143.460938 134.804688 142.027344 140.46875 C 140.28125 147.34375 134.710938 154.0625 132.398438 156.628906 C 132.300781 156.742188 132.160156 156.800781 132.011719 156.800781 Z M 132.175781 153.25 C 132.132812 153.914062 132.167969 154.570312 132.277344 155.191406 C 134.800781 152.285156 139.476562 146.285156 141.015625 140.210938 C 141.875 136.828125 141.363281 131.039062 140.84375 127.117188 C 140.503906 129.996094 139.921875 133.699219 139.007812 136.011719 C 138.148438 138.195312 137.132812 140.347656 136.148438 142.425781 C 135.273438 144.269531 134.371094 146.175781 133.585938 148.09375 C 132.921875 149.707031 132.292969 151.449219 132.175781 153.25 Z M 132.175781 153.25 " fill-opacity="1" fill-rule="nonzero"/><path fill="#9d7fa4" d="M 223.074219 254.78125 C 223.074219 254.988281 223.03125 255.191406 222.953125 255.382812 C 222.875 255.574219 222.761719 255.742188 222.613281 255.890625 C 222.46875 256.035156 222.296875 256.148438 222.105469 256.230469 C 221.914062 256.308594 221.714844 256.347656 221.507812 256.347656 C 221.300781 256.347656 221.101562 256.308594 220.910156 256.230469 C 220.71875 256.148438 220.546875 256.035156 220.402344 255.890625 C 220.253906 255.742188 220.140625 255.574219 220.0625 255.382812 C 219.984375 255.191406 219.941406 254.988281 219.941406 254.78125 C 219.941406 254.574219 219.984375 254.375 220.0625 254.183594 C 220.140625 253.992188 220.253906 253.824219 220.402344 253.675781 C 220.546875 253.527344 220.71875 253.414062 220.910156 253.335938 C 221.101562 253.257812 221.300781 253.21875 221.507812 253.21875 C 221.714844 253.21875 221.914062 253.257812 222.105469 253.335938 C 222.296875 253.414062 222.46875 253.527344 222.613281 253.675781 C 222.761719 253.824219 222.875 253.992188 222.953125 254.183594 C 223.03125 254.375 223.074219 254.574219 223.074219 254.78125 Z M 223.074219 254.78125 " fill-opacity="1" fill-rule="nonzero"/><path fill="#9d7fa4" d="M 233.394531 248.582031 C 233.394531 248.792969 233.351562 248.992188 233.273438 249.183594 C 233.195312 249.375 233.082031 249.542969 232.933594 249.691406 C 232.789062 249.835938 232.617188 249.949219 232.425781 250.03125 C 232.234375 250.109375 232.035156 250.148438 231.828125 250.148438 C 231.621094 250.148438 231.421875 250.109375 231.230469 250.03125 C 231.039062 249.949219 230.867188 249.835938 230.722656 249.691406 C 230.574219 249.542969 230.460938 249.375 230.382812 249.183594 C 230.300781 248.992188 230.261719 248.792969 230.261719 248.582031 C 230.261719 248.375 230.300781 248.175781 230.382812 247.984375 C 230.460938 247.792969 230.574219 247.625 230.722656 247.476562 C 230.867188 247.332031 231.039062 247.21875 231.230469 247.136719 C 231.421875 247.058594 231.621094 247.019531 231.828125 247.019531 C 232.035156 247.019531 232.234375 247.058594 232.425781 247.136719 C 232.617188 247.21875 232.789062 247.332031 232.933594 247.476562 C 233.082031 247.625 233.195312 247.792969 233.273438 247.984375 C 233.351562 248.175781 233.394531 248.375 233.394531 248.582031 Z M 233.394531 248.582031 " fill-opacity="1" fill-rule="nonzero"/><path fill="#9d7fa4" d="M 242.480469 240.6875 C 242.480469 240.894531 242.441406 241.09375 242.359375 241.285156 C 242.28125 241.476562 242.167969 241.648438 242.019531 241.792969 C 241.875 241.941406 241.707031 242.054688 241.515625 242.132812 C 241.320312 242.214844 241.121094 242.253906 240.914062 242.253906 C 240.707031 242.253906 240.507812 242.214844 240.316406 242.132812 C 240.125 242.054688 239.953125 241.941406 239.808594 241.792969 C 239.660156 241.648438 239.546875 241.476562 239.46875 241.285156 C 239.390625 241.09375 239.351562 240.894531 239.351562 240.6875 C 239.351562 240.480469 239.390625 240.28125 239.46875 240.089844 C 239.546875 239.898438 239.660156 239.726562 239.808594 239.582031 C 239.953125 239.433594 240.125 239.320312 240.316406 239.242188 C 240.507812 239.160156 240.707031 239.121094 240.914062 239.121094 C 241.121094 239.121094 241.320312 239.160156 241.515625 239.242188 C 241.707031 239.320312 241.875 239.433594 242.019531 239.582031 C 242.167969 239.726562 242.28125 239.898438 242.359375 240.089844 C 242.441406 240.28125 242.480469 240.480469 242.480469 240.6875 Z M 242.480469 240.6875 " fill-opacity="1" fill-rule="nonzero"/><path fill="#9d7fa4" d="M 250.058594 231.332031 C 250.058594 231.539062 250.019531 231.738281 249.9375 231.929688 C 249.859375 232.121094 249.746094 232.292969 249.597656 232.4375 C 249.453125 232.585938 249.28125 232.699219 249.089844 232.777344 C 248.898438 232.859375 248.699219 232.898438 248.492188 232.898438 C 248.285156 232.898438 248.085938 232.859375 247.894531 232.777344 C 247.703125 232.699219 247.53125 232.585938 247.386719 232.4375 C 247.238281 232.292969 247.125 232.121094 247.046875 231.929688 C 246.96875 231.738281 246.925781 231.539062 246.925781 231.332031 C 246.925781 231.125 246.96875 230.925781 247.046875 230.734375 C 247.125 230.542969 247.238281 230.371094 247.386719 230.226562 C 247.53125 230.078125 247.703125 229.964844 247.894531 229.886719 C 248.085938 229.808594 248.285156 229.765625 248.492188 229.765625 C 248.699219 229.765625 248.898438 229.808594 249.089844 229.886719 C 249.285156 229.964844 249.453125 230.078125 249.597656 230.226562 C 249.746094 230.371094 249.859375 230.542969 249.9375 230.734375 C 250.019531 230.925781 250.058594 231.125 250.058594 231.332031 Z M 250.058594 231.332031 " fill-opacity="1" fill-rule="nonzero"/><g fill="#9d7fa4" fill-opacity="1"><g transform="translate(181.823757, 216.262709)"><g><path d="M 1.097656 -1.894531 C 1.195312 -1.9375 1.289062 -1.980469 1.386719 -2.023438 C 1.484375 -2.070312 1.550781 -2.097656 1.632812 -2.171875 C 2.074219 -2.488281 2.46875 -2.742188 2.753906 -3.144531 C 2.871094 -3.234375 2.957031 -3.390625 2.980469 -3.597656 C 2.96875 -3.707031 2.941406 -3.773438 2.828125 -3.761719 C 2.734375 -3.796875 2.589844 -3.769531 2.429688 -3.699219 L 2.140625 -3.296875 C 1.757812 -2.851562 1.230469 -2.460938 0.617188 -2.183594 C 0.246094 -2.058594 -0.0351562 -2.164062 -0.230469 -2.503906 C -0.273438 -2.601562 -0.300781 -2.667969 -0.347656 -2.765625 C -0.390625 -2.863281 -0.417969 -2.925781 -0.429688 -3.039062 C -0.515625 -3.3125 -0.566406 -3.601562 -0.648438 -3.875 C -0.71875 -4.117188 -0.800781 -4.390625 -0.886719 -4.664062 C -1.035156 -5.257812 -1.140625 -5.835938 -1.257812 -6.445312 C -1.40625 -7.039062 -1.527344 -7.648438 -1.675781 -8.242188 C -2.082031 -9.929688 -2.441406 -11.597656 -2.738281 -13.292969 L -3.765625 -18.710938 C -3.820312 -18.921875 -3.875 -19.128906 -3.945312 -19.371094 C -4 -19.578125 -4.089844 -19.773438 -4.144531 -19.984375 C -4.199219 -20.191406 -4.367188 -20.308594 -4.574219 -20.335938 C -4.621094 -20.351562 -4.699219 -20.355469 -4.777344 -20.359375 C -4.84375 -20.328125 -4.921875 -20.332031 -5.003906 -20.335938 C -5.113281 -20.324219 -5.230469 -20.234375 -5.21875 -20.121094 C -5.214844 -19.851562 -5.21875 -19.695312 -5.152344 -19.453125 C -4.789062 -16.65625 -4.378906 -13.570312 -3.792969 -10.875 C -3.40625 -9.0625 -2.988281 -7.261719 -2.589844 -5.417969 C -2.402344 -4.566406 -2.226562 -3.75 -1.898438 -2.925781 L -1.664062 -2.40625 C -1.238281 -1.546875 -0.773438 -1.289062 0.160156 -1.550781 C 0.207031 -1.535156 0.273438 -1.5625 0.335938 -1.589844 C 0.480469 -1.617188 0.609375 -1.675781 0.738281 -1.734375 C 0.835938 -1.777344 0.96875 -1.835938 1.097656 -1.894531 Z M 1.097656 -1.894531 "/></g></g></g><g fill="#9d7fa4" fill-opacity="1"><g transform="translate(184.22165, 215.186191)"><g><path d="M 1.378906 -4.472656 C 2.058594 -4.777344 2.5 -5.015625 2.609375 -5.804688 C 2.664062 -5.945312 2.667969 -6.027344 2.65625 -6.136719 C 2.710938 -7.058594 2.496094 -7.972656 2.054688 -8.867188 C 1.65625 -9.582031 1.136719 -10.128906 0.472656 -10.570312 C 0.207031 -10.722656 -0.0078125 -10.859375 -0.238281 -11.027344 C -0.363281 -11.128906 -0.375 -11.238281 -0.273438 -11.363281 C 0.132812 -11.585938 0.539062 -11.804688 1.089844 -12.054688 C 1.449219 -12.214844 1.835938 -12.386719 2.289062 -12.589844 C 2.726562 -12.75 3.242188 -12.980469 3.828125 -13.242188 C 3.976562 -13.347656 3.964844 -13.460938 3.792969 -13.578125 C 3.636719 -13.664062 3.398438 -13.675781 3.144531 -13.636719 C 2.480469 -13.378906 1.753906 -13.089844 1.105469 -12.800781 C 0.425781 -12.496094 -0.175781 -12.1875 -0.679688 -11.921875 C -1.203125 -11.609375 -1.449219 -11.378906 -1.4375 -11.269531 C -1.585938 -11.164062 -1.5625 -10.941406 -1.40625 -10.855469 C -1.113281 -10.636719 -0.789062 -10.429688 -0.511719 -10.246094 C 0.648438 -9.480469 1.242188 -8.421875 1.421875 -7.0625 C 1.464844 -6.886719 1.457031 -6.726562 1.449219 -6.570312 C 1.410156 -6.394531 1.40625 -6.238281 1.398438 -6.078125 C 1.351562 -5.746094 1.277344 -5.480469 1.128906 -5.296875 C 1.058594 -5.1875 1.007812 -5.125 0.910156 -5.082031 C 0.8125 -5.039062 0.703125 -5.027344 0.5625 -5.082031 C 0.292969 -5.15625 0.046875 -5.277344 -0.246094 -5.496094 C -0.773438 -5.882812 -1.132812 -6.421875 -1.390625 -7.085938 C -2.210938 -9.171875 -2.511719 -11.488281 -1.582031 -13.578125 C -1.527344 -13.722656 -1.617188 -13.835938 -1.730469 -13.824219 C -1.742188 -13.855469 -1.777344 -13.84375 -1.808594 -13.828125 C -2 -13.820312 -2.175781 -13.78125 -2.371094 -13.691406 C -2.660156 -13.5625 -2.878906 -13.347656 -3.015625 -13.050781 C -3.949219 -11.308594 -3.652344 -8.484375 -2.949219 -6.65625 L -2.804688 -6.332031 C -2.789062 -6.300781 -2.761719 -6.234375 -2.714844 -6.21875 C -2.683594 -6.152344 -2.65625 -6.089844 -2.640625 -6.054688 C -1.882812 -4.800781 -0.777344 -4.246094 0.625 -4.332031 C 0.738281 -4.339844 0.882812 -4.367188 1.027344 -4.394531 C 1.136719 -4.402344 1.265625 -4.460938 1.378906 -4.472656 Z M 1.378906 -4.472656 "/></g></g></g><g fill="#9d7fa4" fill-opacity="1"><g transform="translate(190.86445, 212.203951)"><g><path d="M 2.371094 4.933594 C 3.535156 4.410156 3.773438 3.289062 3.902344 2.101562 C 3.96875 0.945312 3.855469 -0.171875 3.664062 -1.292969 C 3.546875 -1.984375 3.449219 -2.636719 3.347656 -3.292969 C 3.214844 -3.9375 3.085938 -4.578125 2.984375 -5.234375 C 2.882812 -5.808594 2.871094 -6.351562 3.054688 -6.898438 C 3.292969 -7.667969 3.515625 -8.390625 3.71875 -9.144531 C 3.925781 -9.898438 4.148438 -10.621094 4.355469 -11.375 L 4.917969 -13.5 C 4.957031 -13.671875 4.945312 -13.785156 4.9375 -13.894531 C 4.953125 -13.945312 4.925781 -14.007812 4.84375 -14.011719 C 4.703125 -14.066406 4.511719 -14.058594 4.351562 -13.984375 C 4.1875 -13.910156 4.105469 -13.835938 4.054688 -13.695312 C 3.929688 -13.367188 3.835938 -13.050781 3.773438 -12.753906 C 3.636719 -12.105469 3.453125 -11.476562 3.285156 -10.898438 C 3.097656 -10.269531 2.914062 -9.640625 2.761719 -9.027344 C 2.726562 -8.933594 2.691406 -8.839844 2.605469 -8.761719 C 2.589844 -8.714844 2.558594 -8.703125 2.511719 -8.71875 L 2.464844 -8.738281 C 2.4375 -8.882812 2.378906 -9.011719 2.351562 -9.15625 C 2.296875 -9.285156 2.269531 -9.429688 2.257812 -9.539062 C 2.15625 -10.195312 2.089844 -10.867188 1.992188 -11.523438 C 1.90625 -12.148438 1.804688 -12.804688 1.71875 -13.425781 C 1.710938 -13.539062 1.699219 -13.648438 1.6875 -13.761719 C 1.65625 -13.828125 1.628906 -13.890625 1.617188 -14.003906 C 1.578125 -14.179688 1.453125 -14.28125 1.25 -14.304688 C 1.136719 -14.292969 1.023438 -14.28125 0.894531 -14.222656 C 0.699219 -14.136719 0.566406 -14 0.515625 -13.859375 L 0.0273438 -12.511719 C 0.0117188 -12.464844 -0.0195312 -12.449219 -0.0859375 -12.421875 C -0.117188 -12.40625 -0.152344 -12.390625 -0.199219 -12.410156 C -0.855469 -12.660156 -1.507812 -12.640625 -2.125 -12.363281 C -2.640625 -12.128906 -3.054688 -11.75 -3.316406 -11.203125 C -3.335938 -11.15625 -3.386719 -11.09375 -3.421875 -11 C -3.96875 -9.703125 -4.125 -8.234375 -3.542969 -6.9375 C -3.167969 -6.363281 -2.375 -6.332031 -1.824219 -6.578125 C -1.53125 -6.710938 -1.335938 -6.875 -1.179688 -7.140625 C -0.960938 -7.433594 -0.789062 -7.742188 -0.664062 -8.074219 C -0.488281 -8.460938 -0.316406 -8.851562 -0.1875 -9.261719 C -0.0429688 -9.636719 0.0976562 -10.011719 0.273438 -10.402344 C 0.378906 -10.605469 0.464844 -10.761719 0.5 -10.855469 L 0.566406 -10.882812 C 0.613281 -10.863281 0.671875 -10.816406 0.6875 -10.78125 L 0.785156 -10.046875 C 0.925781 -8.433594 1.175781 -6.835938 1.460938 -5.25 C 1.523438 -4.847656 1.476562 -4.515625 1.402344 -4.25 C 0.628906 -1.722656 -0.0664062 1.238281 0.648438 3.875 C 0.710938 4.273438 0.925781 4.492188 1.183594 4.804688 C 1.519531 5.121094 1.980469 5.105469 2.371094 4.933594 Z M 2.117188 4.109375 C 2.019531 4.15625 1.925781 4.117188 1.855469 3.957031 C 1.777344 3.875 1.71875 3.746094 1.648438 3.582031 C 1.457031 3.160156 1.367188 2.695312 1.308594 2.214844 C 1.238281 0.765625 1.378906 -0.65625 1.722656 -2.058594 C 1.742188 -2.105469 1.773438 -2.121094 1.871094 -2.164062 C 1.917969 -2.144531 1.933594 -2.113281 1.960938 -2.046875 C 1.960938 -2.046875 1.992188 -1.984375 2.035156 -1.886719 C 2.246094 -0.460938 2.507812 0.898438 2.511719 2.296875 C 2.519531 2.839844 2.46875 3.332031 2.371094 3.722656 C 2.355469 3.769531 2.324219 3.785156 2.335938 3.816406 C 2.320312 3.863281 2.300781 3.910156 2.285156 3.957031 C 2.199219 4.035156 2.152344 4.097656 2.117188 4.109375 Z M -1.875 -8.074219 C -1.957031 -8 -2.097656 -8.054688 -2.109375 -8.085938 C -2.15625 -8.183594 -2.199219 -8.28125 -2.179688 -8.328125 C -2.355469 -9.496094 -2.199219 -10.886719 -1.507812 -11.859375 C -1.492188 -11.90625 -1.425781 -11.9375 -1.328125 -11.980469 C -1.167969 -12.050781 -1.039062 -12.03125 -0.917969 -11.929688 C -0.839844 -11.847656 -0.746094 -11.8125 -0.6875 -11.761719 C -0.609375 -11.679688 -0.546875 -11.628906 -0.472656 -11.546875 L -0.445312 -11.480469 C -0.414062 -11.417969 -0.386719 -11.351562 -0.402344 -11.304688 L -0.457031 -11.164062 C -0.75 -10.253906 -1.152344 -9.332031 -1.636719 -8.414062 Z M -1.875 -8.074219 "/></g></g></g><g fill="#9d7fa4" fill-opacity="1"><g transform="translate(198.544174, 208.756191)"><g><path d="M 1.378906 -4.472656 C 2.058594 -4.777344 2.5 -5.015625 2.609375 -5.804688 C 2.664062 -5.945312 2.667969 -6.027344 2.65625 -6.136719 C 2.710938 -7.058594 2.496094 -7.972656 2.054688 -8.867188 C 1.65625 -9.582031 1.136719 -10.128906 0.472656 -10.570312 C 0.207031 -10.722656 -0.0078125 -10.859375 -0.238281 -11.027344 C -0.363281 -11.128906 -0.375 -11.238281 -0.273438 -11.363281 C 0.132812 -11.585938 0.539062 -11.804688 1.089844 -12.054688 C 1.449219 -12.214844 1.835938 -12.386719 2.289062 -12.589844 C 2.726562 -12.75 3.242188 -12.980469 3.828125 -13.242188 C 3.976562 -13.347656 3.964844 -13.460938 3.792969 -13.578125 C 3.636719 -13.664062 3.398438 -13.675781 3.144531 -13.636719 C 2.480469 -13.378906 1.753906 -13.089844 1.105469 -12.800781 C 0.425781 -12.496094 -0.175781 -12.1875 -0.679688 -11.921875 C -1.203125 -11.609375 -1.449219 -11.378906 -1.4375 -11.269531 C -1.585938 -11.164062 -1.5625 -10.941406 -1.40625 -10.855469 C -1.113281 -10.636719 -0.789062 -10.429688 -0.511719 -10.246094 C 0.648438 -9.480469 1.242188 -8.421875 1.421875 -7.0625 C 1.464844 -6.886719 1.457031 -6.726562 1.449219 -6.570312 C 1.410156 -6.394531 1.40625 -6.238281 1.398438 -6.078125 C 1.351562 -5.746094 1.277344 -5.480469 1.128906 -5.296875 C 1.058594 -5.1875 1.007812 -5.125 0.910156 -5.082031 C 0.8125 -5.039062 0.703125 -5.027344 0.5625 -5.082031 C 0.292969 -5.15625 0.046875 -5.277344 -0.246094 -5.496094 C -0.773438 -5.882812 -1.132812 -6.421875 -1.390625 -7.085938 C -2.210938 -9.171875 -2.511719 -11.488281 -1.582031 -13.578125 C -1.527344 -13.722656 -1.617188 -13.835938 -1.730469 -13.824219 C -1.742188 -13.855469 -1.777344 -13.84375 -1.808594 -13.828125 C -2 -13.820312 -2.175781 -13.78125 -2.371094 -13.691406 C -2.660156 -13.5625 -2.878906 -13.347656 -3.015625 -13.050781 C -3.949219 -11.308594 -3.652344 -8.484375 -2.949219 -6.65625 L -2.804688 -6.332031 C -2.789062 -6.300781 -2.761719 -6.234375 -2.714844 -6.21875 C -2.683594 -6.152344 -2.65625 -6.089844 -2.640625 -6.054688 C -1.882812 -4.800781 -0.777344 -4.246094 0.625 -4.332031 C 0.738281 -4.339844 0.882812 -4.367188 1.027344 -4.394531 C 1.136719 -4.402344 1.265625 -4.460938 1.378906 -4.472656 Z M 1.378906 -4.472656 "/></g></g></g></svg>